<?xml version="1.0" encoding="utf-8"?>
<!-- Generator: Adobe Illustrator 21.0.0, SVG Export Plug-In . SVG Version: 6.00 Build 0)  -->
<svg version="1.1" id="Layer_1" xmlns="http://www.w3.org/2000/svg" xmlns:xlink="http://www.w3.org/1999/xlink" x="0px" y="0px"
	 viewBox="0 0 300 250" enable-background="new 0 0 300 250" xml:space="preserve">
<g id="YTMusicLogo_sm">
	<g>
		<path fill="#FFFFFF" d="M121.3312,211.0958c-0.4673,2.3737-0.8224,5.2707-1.0093,6.4669h-0.1309
			c-0.1495-1.2335-0.5046-4.1119-0.9905-6.4482l-1.1962-5.8128h-3.6447v15.6812h2.2616v-12.9261l0.2243,1.2073l2.2988,11.7188
			h2.2616l2.2615-11.7188l0.2428-1.2143v7.7706l0.0002,5.1624h2.2615v-15.6812H122.49L121.3312,211.0958z"/>
		<path fill="#FFFFFF" d="M132.284,218.628c-0.2056,0.4299-0.6541,0.7289-1.1028,0.7289c-0.5233,0-0.7289-0.4111-0.7289-1.4204
			v-8.4106h-2.5792v8.5601c0,2.112,0.6915,3.0839,2.2242,3.0839c1.0465,0,1.8877-0.4673,2.4671-1.5887h0.056l0.2243,1.4018h2.0186
			v-11.4571h-2.5792V218.628z"/>
		<path fill="#FFFFFF" d="M139.8536,214.0489c-0.841-0.6168-1.3643-1.028-1.3643-1.9251c0-0.6355,0.299-0.9907,1.0093-0.9907
			c0.7289,0,0.9719,0.5046,0.9905,2.2242l2.1681-0.0935c0.1681-2.7849-0.7477-3.9437-3.1213-3.9437
			c-2.2055,0-3.2895,0.9907-3.2895,3.0279c0,1.8503,0.8972,2.6913,2.355,3.794c1.2522,0.9719,1.9812,1.5139,1.9812,2.299
			c0,0.5981-0.3739,1.0093-1.0281,1.0093c-0.7663,0-1.2148-0.7289-1.1027-1.9998l-2.1867,0.0374
			c-0.3365,2.3736,0.6168,3.7567,3.1586,3.7567c2.2241,0,3.3829-1.0279,3.3829-3.0839
			C142.8067,216.2918,141.8722,215.5441,139.8536,214.0489z"/>
		<rect x="144.2275" y="209.5259" fill="#FFFFFF" width="2.4671" height="11.4571"/>
		<path fill="#FFFFFF" d="M145.4796,205.0028c-0.9532,0-1.4017,0.3551-1.4017,1.5887c0,1.271,0.4485,1.5887,1.4017,1.5887
			c0.9719,0,1.4018-0.3177,1.4018-1.5887C146.8815,205.4139,146.4516,205.0028,145.4796,205.0028z"/>
		<path fill="#FFFFFF" d="M154.9931,216.8524l-2.2616-0.1121c0,2.0186-0.2243,2.6727-0.9905,2.6727s-0.8972-0.7289-0.8972-3.1026
			v-2.2241c0-2.299,0.1495-3.0279,0.9158-3.0279c0.7103,0,0.8972,0.6915,0.8972,2.8223l2.2428-0.1495
			c0.1495-1.7756-0.0748-2.9905-0.7663-3.6821c-0.5047-0.5046-1.2709-0.7475-2.3362-0.7475c-2.5046,0-3.5325,1.3457-3.5325,5.1211
			v1.6073c0,3.8877,0.8784,5.1399,3.439,5.1399c1.0841,0,1.8316-0.2242,2.3362-0.7102
			C154.7687,219.7868,155.0491,218.628,154.9931,216.8524z"/>
	</g>
	<g>
		<path fill="#FFFFFF" d="M66.9425,220.6474c-0.5173-0.3487-0.885-0.8909-1.1029-1.6263c-0.2182-0.7352-0.3271-1.7134-0.3271-2.9349
			v-1.6637c0-1.2338,0.1244-2.2246,0.3738-2.9723c0.2492-0.7477,0.6385-1.2927,1.1683-1.6356
			c0.5296-0.3426,1.2244-0.5141,2.0843-0.5141c0.8474,0,1.5265,0.1746,2.0376,0.5234c0.5109,0.349,0.8847,0.8944,1.1216,1.6357
			c0.2366,0.7416,0.3552,1.7291,0.3552,2.9629v1.6637c0,1.2215-0.1154,2.203-0.3459,2.9442
			c-0.2307,0.7416-0.6046,1.2837-1.1216,1.6263c-0.5173,0.3426-1.2182,0.5141-2.103,0.5141
			C68.173,221.1707,67.4595,220.9961,66.9425,220.6474z M69.84,218.8528c0.1431-0.3738,0.215-0.9843,0.215-1.8319v-3.5705
			c0-0.8225-0.0719-1.4236-0.215-1.8039c-0.1434-0.38-0.3959-0.5701-0.7571-0.5701c-0.349,0-0.5953,0.1902-0.7383,0.5701
			c-0.1434,0.3803-0.215,0.9814-0.215,1.8039v3.5705c0,0.8476,0.0683,1.4581,0.2056,1.8319
			c0.137,0.3739,0.3861,0.5608,0.7477,0.5608C69.4441,219.4136,69.6966,219.2267,69.84,218.8528z"/>
		<path fill="#FFFFFF" d="M106.6462,216.1134v0.5795c0,0.7355,0.0214,1.2869,0.0654,1.6544
			c0.0435,0.3678,0.1337,0.6356,0.2711,0.8039c0.137,0.1682,0.3487,0.2524,0.6355,0.2524c0.3861,0,0.6511-0.1496,0.7944-0.4487
			c0.1431-0.2991,0.2211-0.7975,0.2337-1.4955l2.2246,0.1308c0.0124,0.0999,0.0187,0.237,0.0187,0.4113
			c0,1.0594-0.2898,1.8507-0.8692,2.3741c-0.5794,0.5234-1.399,0.7852-2.4583,0.7852c-1.2711,0-2.1624-0.3987-2.6733-1.1965
			c-0.5111-0.7973-0.7665-2.0311-0.7665-3.7013v-2.0003c0-1.7197,0.2648-2.9751,0.7946-3.7667
			c0.5296-0.7913,1.4362-1.1871,2.7199-1.1871c0.8848,0,1.5638,0.1621,2.0375,0.4861c0.4735,0.3242,0.8068,0.8289,1.0002,1.5141
			c0.1931,0.6855,0.2898,1.6329,0.2898,2.8415v1.9628H106.6462z M106.9732,211.2905c-0.1307,0.162-0.2181,0.427-0.2617,0.7944
			c-0.0439,0.3678-0.0654,0.9253-0.0654,1.6731v0.8226h1.8879v-0.8226c0-0.7351-0.025-1.2928-0.0746-1.6731
			c-0.05-0.38-0.1402-0.6478-0.2711-0.8038c-0.1309-0.1557-0.3335-0.2337-0.6076-0.2337
			C107.3065,211.0474,107.1042,211.1287,106.9732,211.2905z"/>
		<path fill="#FFFFFF" d="M60.6608,215.8988l-2.9349-10.5992h2.561l1.0281,4.8043c0.2618,1.1841,0.4548,2.1935,0.5795,3.0283h0.0748
			c0.0871-0.5982,0.2804-1.6012,0.5795-3.0096l1.0655-4.823h2.5611l-2.9723,10.5992v5.0849h-2.5423V215.8988z"/>
		<path fill="#FFFFFF" d="M80.9826,209.5247v11.459h-2.0189l-0.2244-1.402h-0.056c-0.5486,1.0594-1.3711,1.5889-2.4676,1.5889
			c-0.7603,0-1.3211-0.2491-1.6824-0.7477c-0.3616-0.4983-0.5421-1.2773-0.5421-2.3367v-8.5616h2.5797v8.4121
			c0,0.5111,0.0561,0.8757,0.1682,1.0935c0.1122,0.2182,0.2991,0.3271,0.5608,0.3271c0.2244,0,0.4394-0.0684,0.645-0.2057
			c0.2057-0.137,0.3581-0.3113,0.458-0.5234v-9.1037H80.9826z"/>
		<path fill="#FFFFFF" d="M94.2148,209.5247v11.459h-2.0189l-0.2244-1.402h-0.056c-0.5486,1.0594-1.3711,1.5889-2.4676,1.5889
			c-0.7603,0-1.3211-0.2491-1.6824-0.7477c-0.3616-0.4983-0.5421-1.2773-0.5421-2.3367v-8.5616h2.5797v8.4121
			c0,0.5111,0.0561,0.8757,0.1682,1.0935c0.1122,0.2182,0.2991,0.3271,0.5608,0.3271c0.2244,0,0.4394-0.0684,0.645-0.2057
			c0.2057-0.137,0.3581-0.3113,0.4581-0.5234v-9.1037H94.2148z"/>
		<path fill="#FFFFFF" d="M87.9925,207.3749h-2.561v13.6088h-2.5236v-13.6088h-2.561v-2.075h7.6456V207.3749z"/>
		<path fill="#FFFFFF" d="M102.7526,211.3565c-0.156-0.7226-0.4084-1.246-0.7571-1.5702c-0.349-0.3239-0.8289-0.486-1.4394-0.486
			c-0.4737,0-0.916,0.1341-1.3272,0.4019c-0.4113,0.2681-0.7291,0.6201-0.9534,1.0562h-0.0189l0.0002-6.0381h-2.4862v16.2633h2.131
			l0.2617-1.0842h0.0561c0.1992,0.3864,0.4983,0.6916,0.8973,0.916c0.3987,0.2243,0.8412,0.3364,1.3273,0.3364
			c0.8721,0,1.5141-0.4018,1.9254-1.2056c0.4112-0.8039,0.6169-2.0592,0.6169-3.7667v-1.8133
			C102.9863,213.0828,102.9082,212.0795,102.7526,211.3565z M100.3879,216.0306c0,0.8351-0.0345,1.4894-0.1029,1.9628
			c-0.0686,0.4738-0.1839,0.8103-0.3458,1.0095c-0.1621,0.1995-0.3803,0.2991-0.6542,0.2991c-0.2121,0-0.4084-0.0497-0.5889-0.1496
			c-0.1808-0.0996-0.3271-0.2491-0.4393-0.4486v-6.5054c0.0871-0.3113,0.2366-0.5669,0.4487-0.7664
			c0.2117-0.1992,0.4422-0.2991,0.6916-0.2991c0.2617,0,0.4641,0.1029,0.6075,0.3084c0.1431,0.2056,0.243,0.5515,0.2991,1.0375
			c0.0561,0.486,0.0842,1.1776,0.0842,2.0749V216.0306z"/>
	</g>
	<g>
		<path fill="#ED2224" d="M54.5939,206.8573c-0.3006-1.1247-1.1864-2.0104-2.3111-2.3111C50.2443,204,42.0701,204,42.0701,204
			s-8.1743,0-10.2128,0.5462c-1.1247,0.3006-2.0104,1.1864-2.3111,2.3111C29,208.8958,29,213.149,29,213.149s0,4.2532,0.5462,6.2918
			c0.3006,1.1247,1.1864,2.0104,2.3111,2.3111c2.0385,0.5462,10.2128,0.5462,10.2128,0.5462s8.1742,0,10.2128-0.5462
			c1.1247-0.3006,2.0104-1.1864,2.3111-2.3111c0.5462-2.0385,0.5462-6.2918,0.5462-6.2918S55.1401,208.8958,54.5939,206.8573z"/>
		<polygon fill="#FFFFFF" points="39.4561,217.0701 39.4561,209.228 46.2472,213.1492 		"/>
	</g>
</g>
<g id="copy1">
	<g>
		<path fill="#FFFFFF" d="M30.3664,30.8819v22.283h6.9044c6.7966,0,10.2128-3.7438,10.2128-11.1955
			c0-7.4876-3.3083-11.0875-10.2128-11.0875H30.3664z M35.4009,48.4851V35.4897h1.9778c3.4882,0,4.9626,1.9799,4.9626,6.5877
			c0,4.5358-1.4744,6.4077-5.0345,6.4077H35.4009z"/>
		<path fill="#FFFFFF" d="M63.8356,46.1812c0.2157-1.6559,0.2157-1.7639,0.2157-2.4838c0-2.3039-0.4315-4.2479-1.2586-5.6158
			c-1.2586-2.0879-3.4162-3.2399-6.1492-3.2399c-4.7828,0-7.9473,3.7799-7.9473,9.5396c0,5.6158,3.2364,9.1076,8.4507,9.1076
			c2.8409,0,4.7108-0.7559,6.7966-2.6999l-2.4454-3.2758c-1.6182,1.2959-2.4812,1.6559-4.0275,1.6559
			c-2.1577,0-3.3444-0.9359-3.8119-2.9879H63.8356z M53.5868,42.3654c0.4675-2.1599,1.4744-3.2039,3.0207-3.2039
			c1.6902,0,2.6611,1.188,2.733,3.2039H53.5868z"/>
		<path fill="#FFFFFF" d="M65.1952,51.185c1.762,1.512,3.9916,2.3039,6.6886,2.3039c4.3513,0,7.0483-2.1959,7.0483-5.7237
			c0-2.8799-1.5823-4.4998-5.7897-5.8678c-1.9418-0.6479-2.3733-0.9359-2.3733-1.5479c0-0.792,0.5753-1.152,1.798-1.152
			c1.4384,0,2.5532,0.36,3.9916,1.332l1.7261-3.8878c-1.5823-1.188-3.596-1.8-5.7896-1.8c-3.9917,0-6.5808,2.1959-6.5808,5.5438
			c0,1.5839,0.6832,3.0239,1.9059,3.9238c0.7911,0.612,1.9059,1.116,3.5601,1.692c1.9418,0.6479,2.6251,1.1159,2.6251,1.8359
			c0,0.9359-0.6833,1.3319-2.3015,1.3319c-1.798,0-2.8768-0.396-4.7827-1.8359L65.1952,51.185z"/>
		<path fill="#FFFFFF" d="M94.9636,37.2896c-2.1936-1.7999-3.9197-2.4479-6.5448-2.4479c-5.1783,0-8.4507,3.6359-8.4507,9.3956
			c0,5.7958,3.1645,9.2516,8.4507,9.2516c2.8768,0,4.6029-0.6479,6.8685-2.5559l-2.1936-3.5638
			c-1.7261,1.2959-2.805,1.6919-4.3513,1.6919c-2.4812,0-3.8477-1.7279-3.8477-4.8598c0-3.0958,1.4024-4.9318,3.7039-4.9318
			c1.4744,0,2.4813,0.396,4.1714,1.584L94.9636,37.2896z"/>
		<path fill="#FFFFFF" d="M96.2948,35.1657v10.4396c0,5.1477,2.5891,7.8836,7.4798,7.8836c4.9266,0,7.5157-2.7359,7.5157-7.8836
			V35.1657h-4.8546v10.4396c0,2.3759-0.7912,3.4198-2.6252,3.4198c-1.8699,0-2.661-1.0439-2.661-3.4198V35.1657H96.2948z"/>
		<path fill="#FFFFFF" d="M118.6591,28.542h-4.7827v24.6229h4.4231V51.761c1.3665,1.224,2.5532,1.7279,4.2434,1.7279
			c4.9266,0,7.8034-3.4918,7.8034-9.4676c0-5.7597-2.769-9.1796-7.4079-9.1796c-1.834,0-2.9847,0.432-4.2793,1.656V28.542z
			 M122.1113,39.2695c2.3015,0,3.3084,1.548,3.3084,4.9678c0,3.4559-0.9709,4.8238-3.3803,4.8238
			c-2.3734,0-3.3803-1.4759-3.3803-4.8238C118.6591,40.8895,119.7739,39.2695,122.1113,39.2695z"/>
		<path fill="#FFFFFF" d="M136.6938,35.1657h-4.3871v17.9992h4.8546v-8.8556c0.036-3.2038,1.0069-4.3558,3.8478-4.4638h1.0429
			v-4.8598h-1.0429c-1.8699,0.108-3.2005,0.72-4.3153,2.0519V35.1657z"/>
		<path fill="#FFFFFF" d="M157.6807,46.1812c0.2158-1.6559,0.2158-1.7639,0.2158-2.4838c0-2.3039-0.4315-4.2479-1.2586-5.6158
			c-1.2587-2.0879-3.4163-3.2399-6.1493-3.2399c-4.7827,0-7.9473,3.7799-7.9473,9.5396c0,5.6158,3.2365,9.1076,8.4508,9.1076
			c2.8408,0,4.7108-0.7559,6.7965-2.6999l-2.4453-3.2758c-1.6182,1.2959-2.4813,1.6559-4.0276,1.6559
			c-2.1576,0-3.3443-0.9359-3.8118-2.9879H157.6807z M147.432,42.3654c0.4674-2.1599,1.4743-3.2039,3.0206-3.2039
			c1.6902,0,2.6611,1.188,2.7331,3.2039H147.432z"/>
	</g>
	<g>
		<path fill="#FFFFFF" d="M44.9664,82.1812c0.2158-1.6559,0.2158-1.7639,0.2158-2.4838c0-2.3039-0.4316-4.2479-1.2587-5.6158
			c-1.2586-2.0879-3.4162-3.2399-6.1492-3.2399c-4.7828,0-7.9473,3.7799-7.9473,9.5396c0,5.6158,3.2364,9.1076,8.4507,9.1076
			c2.8409,0,4.7109-0.7559,6.7966-2.6999l-2.4453-3.2758c-1.6183,1.2959-2.4813,1.6559-4.0276,1.6559
			c-2.1577,0-3.3444-0.9359-3.8119-2.9879H44.9664z M34.7176,78.3654c0.4675-2.1599,1.4744-3.2039,3.0207-3.2039
			c1.6902,0,2.6611,1.188,2.733,3.2039H34.7176z"/>
		<path fill="#FFFFFF" d="M54.4962,89.3089v-4.5718h-1.2946c-0.8271,0-1.0428-0.288-1.0428-1.2959V64.542h-4.8547v19.1872
			c0,3.9598,1.6182,5.5797,5.466,5.5797H54.4962z"/>
		<path fill="#FFFFFF" d="M67.9816,71.1657h-4.3872v17.9992h4.8547l-0.0359-9.6475c0-2.9879,0.863-4.2479,2.9128-4.2479
			c1.798,0,2.5172,0.972,2.5172,3.4199v10.4755h4.8547v-9.6475c0-3.0239,0.8271-4.2479,2.8768-4.2479
			c1.834,0,2.5173,0.936,2.5173,3.4199v10.4755h4.8546V78.3654c0-4.8238-2.4453-7.5237-6.7965-7.5237
			c-2.1936,0-3.8118,0.72-5.0345,2.3039c-1.2226-1.5479-2.9128-2.3039-5.0345-2.3039c-1.798,0-2.9487,0.504-4.0995,1.836V71.1657z"
			/>
		<path fill="#FFFFFF" d="M91.1594,71.1657v10.4396c0,5.1477,2.5891,7.8836,7.4798,7.8836c4.9266,0,7.5157-2.7359,7.5157-7.8836
			V71.1657h-4.8547v10.4396c0,2.3759-0.7911,3.4198-2.6251,3.4198c-1.8699,0-2.6611-1.0439-2.6611-3.4198V71.1657H91.1594z"/>
		<path fill="#FFFFFF" d="M113.0131,71.1657h-4.3872v17.9992h4.8547v-9.6475c0-3.0599,0.863-4.2479,3.1645-4.2479
			c2.0138,0,2.7689,1.116,2.7689,4.1039v9.7915h4.8547V79.0134c0-5.3278-2.4453-8.1717-7.0123-8.1717
			c-1.834,0-3.0207,0.504-4.2433,1.836V71.1657z"/>
		<path fill="#FFFFFF" d="M137.5567,64.542v7.9557c-1.2586-1.188-2.4453-1.656-4.1714-1.656c-4.603,0-7.3719,3.4559-7.3719,9.2156
			c0,5.9038,2.8768,9.4316,7.6596,9.4316c1.762,0,3.1645-0.5759,4.2074-1.7279v1.4039h4.4591V64.542H137.5567z M134.1764,75.2695
			c2.3015,0,3.3803,1.62,3.3803,5.1118c0,3.3479-0.935,4.6798-3.3084,4.6798c-2.3733,0-3.3083-1.3679-3.3083-4.7878
			C130.94,76.7815,131.9109,75.2695,134.1764,75.2695z"/>
		<path fill="#FFFFFF" d="M152.6679,70.8417c-5.1783,0-8.2709,3.4559-8.2709,9.2156c0,5.9758,3.0207,9.4316,8.235,9.4316
			c5.2142,0,8.2709-3.4558,8.2709-9.3236C160.9029,74.2616,157.8822,70.8417,152.6679,70.8417z M152.6679,75.2695
			c2.1936,0,3.3084,1.728,3.3084,5.1118c0,3.1679-1.0788,4.6798-3.3084,4.6798c-2.3015,0-3.3443-1.5119-3.3443-4.7158
			C149.3236,76.9975,150.4384,75.2695,152.6679,75.2695z"/>
		<path fill="#FFFFFF" d="M181.1491,64.542v7.9557c-1.2586-1.188-2.4453-1.656-4.1714-1.656c-4.603,0-7.3719,3.4559-7.3719,9.2156
			c0,5.9038,2.8768,9.4316,7.6596,9.4316c1.762,0,3.1645-0.5759,4.2074-1.7279v1.4039h4.4591V64.542H181.1491z M177.7688,75.2695
			c2.3015,0,3.3803,1.62,3.3803,5.1118c0,3.3479-0.935,4.6798-3.3084,4.6798c-2.3733,0-3.3083-1.3679-3.3083-4.7878
			C174.5324,76.7815,175.5033,75.2695,177.7688,75.2695z"/>
		<path fill="#FFFFFF" d="M203.0712,82.1812c0.2158-1.6559,0.2158-1.7639,0.2158-2.4838c0-2.3039-0.4315-4.2479-1.2586-5.6158
			c-1.2586-2.0879-3.4163-3.2399-6.1493-3.2399c-4.7827,0-7.9473,3.7799-7.9473,9.5396c0,5.6158,3.2365,9.1076,8.4508,9.1076
			c2.8408,0,4.7108-0.7559,6.7965-2.6999l-2.4453-3.2758c-1.6182,1.2959-2.4813,1.6559-4.0276,1.6559
			c-2.1576,0-3.3443-0.9359-3.8118-2.9879H203.0712z M192.8225,78.3654c0.4675-2.1599,1.4744-3.2039,3.0207-3.2039
			c1.6901,0,2.661,1.188,2.733,3.2039H192.8225z"/>
	</g>
	<g>
		<path fill="#FFFFFF" d="M37.7383,125.3089v-4.5718h-1.2946c-0.8271,0-1.0428-0.288-1.0428-1.2959V100.542h-4.8547v19.1872
			c0,3.9598,1.6182,5.5797,5.466,5.5797H37.7383z"/>
		<path fill="#FFFFFF" d="M40.9282,112.1695c2.0857-0.828,3.1286-1.044,4.7108-1.044c2.3015,0,3.2724,0.972,3.5242,3.5279
			c-1.1148-0.828-2.3015-1.188-3.8838-1.188c-3.9556,0-6.5448,2.3399-6.5448,5.9398c0,3.7078,2.5892,6.0837,6.6527,6.0837
			c1.9419,0,3.1645-0.4679,4.2074-1.5839v1.2599h4.2433v-9.5755c0-5.9038-2.5172-8.7477-7.7674-8.7477
			c-2.5532,0-4.5311,0.504-6.6527,1.728L40.9282,112.1695z M46.2504,117.4613c2.0138,0,2.8408,0.54,2.8408,1.9079
			c0,1.3679-0.863,1.9439-2.8049,1.9439c-2.0497,0-2.8768-0.54-2.8768-1.9439C43.4095,118.0732,44.3085,117.4613,46.2504,117.4613z"
			/>
		<path fill="#FFFFFF" d="M67.9712,107.1657H63.584v17.9992h4.8547l-0.036-9.6475c0-2.9879,0.8631-4.2479,2.9128-4.2479
			c1.7981,0,2.5173,0.972,2.5173,3.4199v10.4755h4.8547v-9.6475c0-3.0239,0.8271-4.2479,2.8768-4.2479
			c1.834,0,2.5172,0.936,2.5172,3.4199v10.4755h4.8547v-10.7995c0-4.8238-2.4453-7.5237-6.7965-7.5237
			c-2.1936,0-3.8118,0.72-5.0345,2.3039c-1.2227-1.5479-2.9128-2.3039-5.0345-2.3039c-1.798,0-2.9488,0.504-4.0995,1.836V107.1657z"
			/>
		<path fill="#FFFFFF" d="M103.7351,102.1259l-1.798-3.7798l-6.1493,3.2399l0.036,4.6078L103.7351,102.1259z M91.1489,107.1657
			v10.4396c0,5.1477,2.5892,7.8836,7.4798,7.8836c4.9266,0,7.5158-2.7359,7.5158-7.8836v-10.4396h-4.8547v10.4396
			c0,2.3759-0.7911,3.4198-2.6251,3.4198c-1.87,0-2.6611-1.0439-2.6611-3.4198v-10.4396H91.1489z"/>
		<path fill="#FFFFFF" d="M107.4108,123.185c1.762,1.512,3.9916,2.3039,6.6886,2.3039c4.3513,0,7.0483-2.1959,7.0483-5.7237
			c0-2.8799-1.5823-4.4998-5.7897-5.8678c-1.9418-0.6479-2.3734-0.9359-2.3734-1.5479c0-0.792,0.5754-1.152,1.7981-1.152
			c1.4384,0,2.5532,0.36,3.9916,1.332l1.7261-3.8878c-1.5823-1.188-3.5961-1.8-5.7896-1.8c-3.9917,0-6.5808,2.1959-6.5808,5.5438
			c0,1.5839,0.6832,3.0239,1.9059,3.9238c0.7911,0.612,1.9059,1.116,3.5601,1.692c1.9418,0.6479,2.6251,1.1159,2.6251,1.8359
			c0,0.9359-0.6833,1.3319-2.3015,1.3319c-1.798,0-2.8768-0.396-4.7827-1.8359L107.4108,123.185z"/>
		<path fill="#FFFFFF" d="M129.4908,125.3089v-4.6078h-1.0788c-0.5753,0-0.6832-0.252-0.7192-1.2599v-12.2755h-4.8547v12.5995
			c0,3.9238,1.5463,5.5437,5.2503,5.5437H129.4908z M125.2835,99.678c-1.6183,0-2.8409,1.224-2.8409,2.8439
			c0,1.6199,1.1867,2.8079,2.8049,2.8079c1.6542,0,2.8409-1.188,2.8409-2.8439C128.0884,100.902,126.8657,99.678,125.2835,99.678z"
			/>
		<path fill="#FFFFFF" d="M145.2815,109.2896c-2.1936-1.7999-3.9197-2.4479-6.5448-2.4479c-5.1784,0-8.4508,3.6359-8.4508,9.3956
			c0,5.7958,3.1646,9.2516,8.4508,9.2516c2.8768,0,4.6029-0.6479,6.8684-2.5559l-2.1936-3.5638
			c-1.7261,1.2959-2.8049,1.6919-4.3512,1.6919c-2.4813,0-3.8478-1.7279-3.8478-4.8598c0-3.0958,1.4025-4.9318,3.704-4.9318
			c1.4743,0,2.4812,0.396,4.1714,1.584L145.2815,109.2896z"/>
		<path fill="#FFFFFF" d="M148.4179,112.1695c2.0857-0.828,3.1285-1.044,4.7108-1.044c2.3015,0,3.2724,0.972,3.5241,3.5279
			c-1.1147-0.828-2.3014-1.188-3.8837-1.188c-3.9557,0-6.5448,2.3399-6.5448,5.9398c0,3.7078,2.5891,6.0837,6.6527,6.0837
			c1.9418,0,3.1645-0.4679,4.2073-1.5839v1.2599h4.2434v-9.5755c0-5.9038-2.5172-8.7477-7.7675-8.7477
			c-2.5532,0-4.531,0.504-6.6527,1.728L148.4179,112.1695z M153.74,117.4613c2.0138,0,2.8409,0.54,2.8409,1.9079
			c0,1.3679-0.863,1.9439-2.8049,1.9439c-2.0498,0-2.8769-0.54-2.8769-1.9439C150.8991,118.0732,151.7982,117.4613,153.74,117.4613z
			"/>
		<path fill="#FFFFFF" d="M166.3161,119.9092c-1.6182,0-2.8409,1.2239-2.8409,2.8438c0,1.656,1.2227,2.8799,2.8769,2.8799
			c1.6182,0,2.8408-1.2239,2.8408-2.8439C169.1929,121.1331,167.9703,119.9092,166.3161,119.9092z"/>
	</g>
	<g>
		<path fill="#FFFFFF" d="M35.9096,151.9646h3.4194l0.6603-2.3607H29.4716v2.3607h3.7732v12.252h2.6648V151.9646z"/>
		<path fill="#FFFFFF" d="M44.5504,152.2006c-3.3487,0-5.306,2.2191-5.306,6.0434c0,3.9424,1.9102,6.1851,5.306,6.1851
			c3.3487,0,5.306-2.2427,5.306-6.1142C49.8564,154.4197,47.9463,152.2006,44.5504,152.2006z M44.5504,154.5849
			c1.7687,0,2.6884,1.322,2.6884,3.8716c0,2.3843-0.8961,3.5883-2.6884,3.5883c-1.7922,0-2.6884-1.1804-2.6884-3.6119
			C41.862,155.9305,42.7818,154.5849,44.5504,154.5849z"/>
		<path fill="#FFFFFF" d="M59.2332,148.0694v5.3824c-0.731-0.8262-1.7922-1.2512-3.16-1.2512c-3.0421,0-4.7872,2.1955-4.7872,6.0434
			c0,3.9424,1.8158,6.1851,5.023,6.1851c1.3206,0,2.2403-0.3777,3.1836-1.2984v1.0859h2.2875v-16.1472H59.2332z M56.5213,154.5849
			c1.8158,0,2.7119,1.2748,2.7119,3.8952c0,2.4787-0.8018,3.5647-2.6648,3.5647c-1.863,0-2.6648-1.1096-2.6648-3.6591
			C53.9036,155.7889,54.729,154.5849,56.5213,154.5849z"/>
		<path fill="#FFFFFF" d="M69.0488,152.2006c-3.3487,0-5.306,2.2191-5.306,6.0434c0,3.9424,1.9101,6.1851,5.306,6.1851
			c3.3486,0,5.306-2.2427,5.306-6.1142C74.3548,154.4197,72.4446,152.2006,69.0488,152.2006z M69.0488,154.5849
			c1.7686,0,2.6883,1.322,2.6883,3.8716c0,2.3843-0.8961,3.5883-2.6883,3.5883c-1.7923,0-2.6884-1.1804-2.6884-3.6119
			C66.3604,155.9305,67.2801,154.5849,69.0488,154.5849z"/>
		<path fill="#FFFFFF" d="M90.91,159.33c0.0707-0.5666,0.0943-0.9679,0.0943-1.3456c0-1.5581-0.2594-2.8093-0.8018-3.7063
			c-0.7782-1.3457-2.1695-2.0775-3.891-2.0775c-3.1129,0-5.1174,2.4552-5.1174,6.2559c0,3.7063,2.0517,5.9726,5.4475,5.9726
			c1.7215,0,2.995-0.4722,4.1741-1.5581l-1.3442-1.7941c-0.8254,0.6846-1.6272,0.9915-2.6176,0.9915
			c-1.7923,0-2.7592-0.8971-2.995-2.7384H90.91z M83.8589,157.2053c0.2358-1.7469,1.0612-2.644,2.4054-2.644
			c1.4385,0,2.1931,0.8971,2.1931,2.644H83.8589z"/>
		<path fill="#FFFFFF" d="M92.3586,163.0835c0.9904,0.8498,2.5232,1.3456,4.1504,1.3456c2.7827,0,4.4571-1.3692,4.4571-3.6119
			c0-1.865-1.1792-3.0689-3.6789-3.8007c-1.3206-0.3777-1.8865-0.7791-1.8865-1.3692c0-0.7319,0.5423-1.1096,1.6035-1.1096
			c0.8962,0,1.7687,0.2597,2.4998,0.7555l0.9432-2.0775c-0.8725-0.6137-2.2403-1.0151-3.5137-1.0151
			c-2.5469,0-4.1505,1.3692-4.1505,3.4939c0,1.7469,0.9905,2.7856,3.4666,3.6119c1.5329,0.4957,2.0752,0.897,2.0752,1.5816
			c0,0.8263-0.6367,1.2276-1.9337,1.2276c-1.2027,0-2.0516-0.3069-3.1128-1.0859L92.3586,163.0835z"/>
		<path fill="#FFFFFF" d="M108.7037,164.311v-2.3843h-1.1084c-1.6743,0-2.4289-0.8262-2.4289-2.644v-4.6033h2.8534l0.9905-2.2663
			h-3.8439v-2.4551h-2.5941v9.4428c0,3.2578,1.6272,4.9339,4.7636,4.9102H108.7037z"/>
		<path fill="#FFFFFF" d="M111.2958,155.1279c1.132-0.4485,1.9574-0.6138,2.995-0.6138c1.9101,0,2.6884,0.8027,2.7355,2.8093
			c-0.7546-0.4014-1.6979-0.5902-2.8534-0.5902c-2.6648,0-4.2684,1.44-4.2684,3.8243c0,2.4316,1.6036,3.8716,4.3155,3.8716
			c1.6036,0,2.4997-0.3541,3.1365-1.204v0.9915h2.1931v-6.3031c0-3.8715-1.58-5.7129-4.9287-5.7129
			c-1.6036,0-2.9713,0.3305-4.1269,0.9915L111.2958,155.1279z M114.7388,158.9522c1.5565,0,2.2875,0.5194,2.2875,1.6053
			c0,1.1096-0.7546,1.6289-2.311,1.6289c-1.58,0-2.3111-0.4957-2.3111-1.5817
			C112.4042,159.4716,113.1588,158.9522,114.7388,158.9522z M117.8045,149.0137l-0.9668-2.0538l-3.7024,1.9357l0.0235,2.5024
			L117.8045,149.0137z"/>
		<path fill="#FFFFFF" d="M128.0163,155.1279c1.132-0.4485,1.9573-0.6138,2.995-0.6138c1.9101,0,2.6883,0.8027,2.7355,2.8093
			c-0.7546-0.4014-1.6979-0.5902-2.8534-0.5902c-2.6648,0-4.2684,1.44-4.2684,3.8243c0,2.4316,1.6036,3.8716,4.3155,3.8716
			c1.6036,0,2.4997-0.3541,3.1365-1.204v0.9915h2.1931v-6.3031c0-3.8715-1.58-5.7129-4.9287-5.7129
			c-1.6036,0-2.9713,0.3305-4.1269,0.9915L128.0163,155.1279z M131.4593,158.9522c1.5565,0,2.2875,0.5194,2.2875,1.6053
			c0,1.1096-0.7546,1.6289-2.3111,1.6289c-1.58,0-2.311-0.4957-2.311-1.5817C129.1247,159.4716,129.8793,158.9522,131.4593,158.9522
			z"/>
		<path fill="#FFFFFF" d="M146.338,152.4131v1.0151c-0.8725-0.8735-1.7922-1.2276-3.2307-1.2276
			c-3.2544,0-5.0938,2.1719-5.0938,5.9962c0,3.9424,1.8866,6.2323,5.1174,6.2323c1.2498,0,2.1695-0.3541,2.9949-1.1332v5.2172
			h2.5704v-16.1H146.338z M143.3903,154.5849c1.8394,0,2.7591,1.2748,2.7591,3.8008c0,2.5023-0.8726,3.6591-2.7591,3.6591
			c-1.8866,0-2.7592-1.1568-2.7592-3.6827C140.6311,155.8361,141.5508,154.5849,143.3903,154.5849z"/>
		<path fill="#FFFFFF" d="M150.9491,152.4131v6.8933c0,3.3994,1.6036,5.1227,4.7636,5.1227c3.1836,0,4.8108-1.7469,4.8108-5.1227
			v-6.8933h-2.594v6.8933c0,1.8413-0.7075,2.7148-2.1932,2.7148s-2.1931-0.8735-2.1931-2.7148v-6.8933H150.9491z"/>
		<path fill="#FFFFFF" d="M166.4786,164.311v-2.4787h-0.3537c-0.6368,0-0.8726-0.3305-0.8726-1.2276v-8.1916h-2.594v8.4041
			c0,2.5496,0.8725,3.4938,3.2307,3.4938H166.4786z M166.7616,149.0137l-0.9669-2.0538l-3.7024,1.9357l0.0236,2.5024
			L166.7616,149.0137z"/>
		<path fill="#FFFFFF" d="M169.8276,161.313c-0.9197,0-1.6036,0.6846-1.6036,1.6052c0,0.9207,0.6839,1.6053,1.6036,1.6053
			c0.9197,0,1.6036-0.6846,1.6036-1.6053C171.4312,161.9976,170.7473,161.313,169.8276,161.313z"/>
	</g>
</g>
<g id="copy2">
	<g id="copy2_ln1">
		<path fill="#FFFFFF" d="M39.4516,31.4219l-1.9738-1.044l-2.8964,16.4513c-0.5937,3.1679-2.0995,4.5718-4.9277,4.4998h-0.3596
			l-0.3486,1.9799h0.7192c4.0995,0,6.2461-1.9799,7.0743-6.4797L39.4516,31.4219z"/>
		<path fill="#FFFFFF" d="M48.7137,53.1649h6.2931c2.769,0,4.036-0.2519,5.5419-1.0439c1.6751-0.936,2.7642-2.6279,3.1698-4.9318
			c0.469-2.6639-0.295-4.2478-2.7343-5.5078c2.1447-1.1519,3.2444-2.6998,3.669-5.1117c0.6781-3.8519-1.408-5.6878-6.4065-5.6878
			h-5.6098L48.7137,53.1649z M53.0199,40.9615l1.445-8.2077h3.7399c3.3084,0,4.8296,1.368,4.3733,3.9599
			c-0.1965,1.1159-0.6743,2.1959-1.2622,2.8798c-0.9876,1.116-1.7872,1.368-4.5561,1.368H53.0199z M51.2009,51.293l1.4894-8.4596
			h3.7399c2.3015,0,3.5327,0.36,4.3811,1.2599c0.6877,0.792,0.9354,1.836,0.7073,3.1319c-0.5071,2.8799-2.4423,4.0678-6.5418,4.0678
			H51.2009z"/>
		<path fill="#FFFFFF" d="M69.8343,37.5776c1.5694-0.54,2.9084-0.7919,4.4187-0.7919c1.6902,0,2.915,0.3959,3.7106,1.1879
			c1.0388,1.044,1.1766,2.3039,0.6379,5.3638c-1.4344-1.044-2.8264-1.512-4.6964-1.512c-4.3872,0-7.1218,2.0519-7.7873,5.8318
			c-0.393,2.2319,0.1722,3.9238,1.6193,4.8958c0.9351,0.6119,2.179,0.8999,4.1209,0.8999c2.4812,0,4.1099-0.4679,5.4275-1.6199
			l-0.2345,1.3319h1.9419l1.7049-9.6835c1.0521-5.9758-0.6788-8.6037-5.6054-8.6037c-2.0498,0-3.725,0.324-5.6498,1.044
			L69.8343,37.5776z M73.6834,43.6974c3.2005,0,4.6668,1.4759,4.1914,4.1758c-0.431,2.4479-2.307,3.7078-5.5434,3.7078
			c-3.1645,0-4.5842-1.3319-4.1406-3.8518C68.6472,45.1373,70.5908,43.6974,73.6834,43.6974z"/>
		<path fill="#FFFFFF" d="M87.4999,28.542l-3.619,20.5551c-0.5027,3.0599,0.4812,4.2118,3.4659,4.2118h0.5394l0.3422-1.9439h-0.3596
			c-1.6838-0.036-2.2276-0.8279-1.8388-2.6279l3.5556-20.1951H87.4999z"/>
		<path fill="#FFFFFF" d="M91.2603,35.1657l3.3759,17.9992h2.697l9.6779-17.9992h-2.3015L96.3407,51.041l-2.7789-15.8753H91.2603z"
			/>
		<path fill="#FFFFFF" d="M111.3224,28.47c-0.899,0-1.6181,0.612-1.7702,1.4759c-0.1584,0.9,0.3451,1.512,1.2082,1.512
			c0.899,0,1.6181-0.612,1.7702-1.476C112.689,29.082,112.1855,28.47,111.3224,28.47z M110.0059,53.3089l0.3422-1.9439h-0.2517
			c-1.3242-0.036-1.7305-0.7919-1.3353-2.6279l2.3893-13.5714h-2.0857l-2.4527,13.9314c-0.5028,3.0599,0.3732,4.2118,3.1422,4.2118
			H110.0059z"/>
		<path fill="#FFFFFF" d="M118.1843,35.1657h-1.834l-3.1689,17.9992h2.0857l1.7176-9.7555
			c0.7922-4.4998,2.8922-6.6237,6.5602-6.6237c3.4163,0,4.6077,2.0159,3.8281,6.4437l-1.7493,9.9355h2.0857l1.819-10.3315
			c0.957-5.4358-0.685-7.9557-5.1801-7.9557c-2.8049,0-4.8143,0.792-6.5759,2.6279L118.1843,35.1657z"/>
	</g>
	<g id="copy2_ln2">
		<path fill="#FFFFFF" d="M43.9664,82.1812c0.2158-1.6559,0.2158-1.7639,0.2158-2.4838c0-2.3039-0.4316-4.2479-1.2587-5.6158
			c-1.2586-2.0879-3.4162-3.2399-6.1492-3.2399c-4.7828,0-7.9473,3.7799-7.9473,9.5396c0,5.6158,3.2364,9.1076,8.4507,9.1076
			c2.8409,0,4.7109-0.7559,6.7966-2.6999l-2.4453-3.2758c-1.6183,1.2959-2.4813,1.6559-4.0276,1.6559
			c-2.1577,0-3.3444-0.9359-3.8119-2.9879H43.9664z M33.7176,78.3654c0.4675-2.1599,1.4744-3.2039,3.0207-3.2039
			c1.6902,0,2.6611,1.188,2.733,3.2039H33.7176z"/>
		<path fill="#FFFFFF" d="M45.326,87.185c1.762,1.512,3.9916,2.3039,6.6886,2.3039c4.3513,0,7.0483-2.1959,7.0483-5.7237
			c0-2.8799-1.5823-4.4998-5.7896-5.8678c-1.9419-0.6479-2.3734-0.9359-2.3734-1.5479c0-0.792,0.5753-1.152,1.798-1.152
			c1.4384,0,2.5532,0.36,3.9916,1.332l1.7261-3.8878c-1.5822-1.188-3.596-1.8-5.7896-1.8c-3.9917,0-6.5808,2.1959-6.5808,5.5438
			c0,1.5839,0.6832,3.0239,1.9059,3.9238c0.7911,0.612,1.9059,1.116,3.5601,1.692c1.9419,0.6479,2.6251,1.1159,2.6251,1.8359
			c0,0.9359-0.6832,1.3319-2.3015,1.3319c-1.798,0-2.8768-0.396-4.7827-1.8359L45.326,87.185z"/>
		<path fill="#FFFFFF" d="M70.6425,89.3089v-4.4278h-2.1576c-2.1217,0-2.9848-0.9359-2.9848-3.3478v-6.1198h4.0276l1.834-4.2478
			h-5.8616v-3.7438h-4.8546v14.2914c0,4.9678,2.5891,7.6316,7.4438,7.5956H70.6425z"/>
		<path fill="#FFFFFF" d="M84.3832,66.1259l-1.798-3.7798l-6.1853,3.2399l0.036,4.6078L84.3832,66.1259z M73.8467,76.1695
			c2.0858-0.828,3.1286-1.044,4.7109-1.044c2.3015,0,3.2724,0.972,3.5241,3.5279c-1.1148-0.828-2.3015-1.188-3.8837-1.188
			c-3.9557,0-6.5448,2.3399-6.5448,5.9398c0,3.7078,2.5891,6.0837,6.6527,6.0837c1.9418,0,3.1645-0.4679,4.2073-1.5839v1.2599
			h4.2434v-9.5755c0-5.9038-2.5172-8.7477-7.7675-8.7477c-2.5532,0-4.531,0.504-6.6527,1.728L73.8467,76.1695z M79.1689,81.4613
			c2.0138,0,2.8409,0.54,2.8409,1.9079c0,1.3679-0.8631,1.9439-2.8049,1.9439c-2.0498,0-2.8769-0.54-2.8769-1.9439
			C76.328,82.0733,77.227,81.4613,79.1689,81.4613z"/>
		<path fill="#FFFFFF" d="M97.977,76.1695c2.0857-0.828,3.1285-1.044,4.7108-1.044c2.3015,0,3.2724,0.972,3.5241,3.5279
			c-1.1148-0.828-2.3014-1.188-3.8837-1.188c-3.9557,0-6.5448,2.3399-6.5448,5.9398c0,3.7078,2.5891,6.0837,6.6527,6.0837
			c1.9418,0,3.1645-0.4679,4.2074-1.5839v1.2599h4.2433v-9.5755c0-5.9038-2.5172-8.7477-7.7675-8.7477
			c-2.5532,0-4.531,0.504-6.6527,1.728L97.977,76.1695z M103.2991,81.4613c2.0138,0,2.8409,0.54,2.8409,1.9079
			c0,1.3679-0.863,1.9439-2.8049,1.9439c-2.0498,0-2.8769-0.54-2.8769-1.9439C100.4582,82.0733,101.3573,81.4613,103.2991,81.4613z"
			/>
		<path fill="#FFFFFF" d="M124.6855,71.1657v1.332c-1.3305-1.224-2.4094-1.656-4.2793-1.656c-4.8906,0-7.8394,3.4199-7.8394,9.1796
			c0,5.8318,2.9847,9.4676,7.7675,9.4676c1.6901,0,2.8768-0.432,4.0276-1.5119v7.7397h4.8187v-24.551H124.6855z M120.9096,75.2695
			c2.3734,0,3.4882,1.62,3.4882,5.0038c0,3.3479-1.0428,4.7878-3.4882,4.7878c-2.3734,0-3.4162-1.4759-3.4162-4.8238
			C117.4934,76.8535,118.5722,75.2695,120.9096,75.2695z"/>
		<path fill="#FFFFFF" d="M131.6698,71.1657v10.4396c0,5.1477,2.5892,7.8836,7.4798,7.8836c4.9266,0,7.5158-2.7359,7.5158-7.8836
			V71.1657h-4.8547v10.4396c0,2.3759-0.7911,3.4198-2.6251,3.4198c-1.87,0-2.6611-1.0439-2.6611-3.4198V71.1657H131.6698z"/>
		<path fill="#FFFFFF" d="M156.1163,66.1259l-1.7621-3.7798l-6.1852,3.2399l0.036,4.6078L156.1163,66.1259z M155.6488,89.3089
			v-4.6078H154.57c-0.5754,0-0.6833-0.252-0.7192-1.2599V71.1657h-4.8547v12.5995c0,3.9238,1.5463,5.5437,5.2502,5.5437H155.6488z"
			/>
		<path fill="#FFFFFF" d="M160.3097,83.9092c-1.6183,0-2.8409,1.2239-2.8409,2.8438c0,1.656,1.2226,2.8799,2.8768,2.8799
			c1.6183,0,2.8409-1.2239,2.8409-2.8439C163.1865,85.1331,161.9639,83.9092,160.3097,83.9092z"/>
	</g>
</g>
<g id="copy3">
	<path fill="#FFFFFF" d="M34.5044,41.1415l1.8064-10.2596h-2.1577L30.23,53.1649h2.1576l1.7683-10.0435l8.1208,10.0435h2.8409
		l-9.0328-11.1955l11.6974-11.0875H45.193L34.5044,41.1415z"/>
	<path fill="#FFFFFF" d="M49.5922,37.5776c1.5694-0.54,2.9084-0.7919,4.4187-0.7919c1.6902,0,2.915,0.3959,3.7106,1.1879
		c1.0388,1.044,1.1766,2.3039,0.6379,5.3638c-1.4344-1.044-2.8264-1.512-4.6964-1.512c-4.3872,0-7.1218,2.0519-7.7873,5.8318
		c-0.3929,2.2319,0.1722,3.9238,1.6193,4.8958c0.9351,0.6119,2.179,0.8999,4.1209,0.8999c2.4813,0,4.11-0.4679,5.4275-1.6199
		l-0.2345,1.3319h1.9419l1.7049-9.6835c1.0521-5.9758-0.6788-8.6037-5.6054-8.6037c-2.0498,0-3.725,0.324-5.6498,1.044
		L49.5922,37.5776z M53.4413,43.6974c3.2005,0,4.6668,1.4759,4.1914,4.1758c-0.4309,2.4479-2.307,3.7078-5.5434,3.7078
		c-3.1645,0-4.5842-1.3319-4.1406-3.8518C48.4051,45.1373,50.3487,43.6974,53.4413,43.6974z"/>
	<path fill="#FFFFFF" d="M68.0119,35.1657h-1.834L63.009,53.1649h2.0857l1.6162-9.1796c0.7139-4.4638,2.852-6.8037,6.3719-6.9837
		h0.4315l0.3486-1.9799h-0.7911c-2.1577,0-4.0549,0.972-5.5352,2.8439L68.0119,35.1657z"/>
	<path fill="#FFFFFF" d="M82.2274,34.8777c-5.1424,0-8.4394,3.2039-9.5106,9.2876c-1.052,5.9758,1.1338,9.2876,6.1323,9.2876
		c4.9626,0,8.3147-3.3118,9.3667-9.2876C89.2616,38.2256,87.118,34.8777,82.2274,34.8777z M81.7117,36.7857
		c3.668,0,5.2064,2.6998,4.3444,7.5956c-0.8239,4.6798-3.2031,7.1637-6.907,7.1637c-3.668,0-5.1725-2.4839-4.3486-7.1637
		C75.6498,39.5575,78.1516,36.7857,81.7117,36.7857z"/>
	<path fill="#FFFFFF" d="M94.6492,28.542l-3.619,20.5551c-0.5027,3.0599,0.4812,4.2118,3.4659,4.2118h0.5394l0.3422-1.9439h-0.3596
		c-1.6838-0.036-2.2276-0.8279-1.8388-2.6279l3.5556-20.1951H94.6492z"/>
	<path fill="#FFFFFF" d="M124.7049,41.8614l-2.3054,1.044l-1.2866,7.3077c-2.3838,1.0799-2.9485,1.2239-4.4589,1.2239
		c-4.6389,0-6.7931-3.4918-5.76-9.3596c1.0394-5.9037,4.4359-9.4676,9.0028-9.4676c1.6542,0,3.0166,0.432,4.3918,1.404l1.3767-1.692
		c-1.7201-1.2599-3.2559-1.7279-5.4855-1.7279c-6.0054,0-10.2478,4.2838-11.547,11.6635
		c-1.2549,7.1277,1.3732,11.1955,7.3067,11.1955c2.9128,0,5.5589-0.9359,7.1683-2.5199L124.7049,41.8614z"/>
</g>
<g id="copy4">
	<path fill="#FFFFFF" d="M34.0173,47.7652h9.4216l0.8474,5.3997h2.2655l-3.5926-22.283H40.442l-11.439,22.283h2.2656
		L34.0173,47.7652z M34.9645,45.8573l6.2607-12.2755l1.9383,12.2755H34.9645z"/>
	<path fill="#FFFFFF" d="M53.9718,35.1657h-1.834l-3.169,17.9992h2.0857l1.7176-9.7555c0.7922-4.4998,2.8923-6.6237,6.5603-6.6237
		c3.4162,0,4.6076,2.0159,3.828,6.4437l-1.7492,9.9355h2.0857l1.819-10.3315c0.957-5.4358-0.6851-7.9557-5.1801-7.9557
		c-2.805,0-4.8144,0.792-6.576,2.6279L53.9718,35.1657z"/>
	<path fill="#FFFFFF" d="M73.1638,28.47c-0.899,0-1.6181,0.612-1.7702,1.4759c-0.1585,0.9,0.3451,1.512,1.2082,1.512
		c0.899,0,1.6181-0.612,1.7702-1.476C74.5304,29.082,74.0268,28.47,73.1638,28.47z M71.8473,53.3089l0.3422-1.9439h-0.2517
		c-1.3242-0.036-1.7305-0.7919-1.3354-2.6279l2.3894-13.5714h-2.0857l-2.4527,13.9314c-0.5028,3.0599,0.3732,4.2118,3.1422,4.2118
		H71.8473z"/>
	<path fill="#FFFFFF" d="M82.7829,53.3089l0.3422-1.9439h-0.7192c-3.6806,0.072-4.8972-1.1879-4.3671-4.6078l1.7113-9.7196h4.9985
		l1.1207-1.8719h-5.7897l0.6592-3.7438h-2.0857l-2.7317,15.5153c-0.7309,4.3558,1.0359,6.3717,5.7107,6.3717H82.7829z"/>
	<path fill="#FFFFFF" d="M92.4167,53.3089l0.3422-1.9439h-0.7192c-3.6806,0.072-4.8972-1.1879-4.367-4.6078l1.7112-9.7196h4.9985
		l1.1207-1.8719h-5.7896l0.6591-3.7438h-2.0857l-2.7316,15.5153c-0.731,4.3558,1.0358,6.3717,5.7107,6.3717H92.4167z"/>
	<path fill="#FFFFFF" d="M98.02,37.5776c1.5695-0.54,2.9084-0.7919,4.4188-0.7919c1.6901,0,2.915,0.3959,3.7105,1.1879
		c1.0389,1.044,1.1767,2.3039,0.6379,5.3638c-1.4344-1.044-2.8264-1.512-4.6963-1.512c-4.3872,0-7.1219,2.0519-7.7873,5.8318
		c-0.393,2.2319,0.1722,3.9238,1.6193,4.8958c0.9351,0.6119,2.179,0.8999,4.1208,0.8999c2.4813,0,4.11-0.4679,5.4276-1.6199
		l-0.2345,1.3319h1.9419l1.7049-9.6835c1.0521-5.9758-0.6789-8.6037-5.6055-8.6037c-2.0497,0-3.725,0.324-5.6498,1.044
		L98.02,37.5776z M101.8692,43.6974c3.2005,0,4.6667,1.4759,4.1914,4.1758c-0.431,2.4479-2.307,3.7078-5.5434,3.7078
		c-3.1646,0-4.5843-1.3319-4.1406-3.8518C96.8329,45.1373,98.7766,43.6974,101.8692,43.6974z"/>
</g>
<g id="copy5">
	<g>
		<path fill="#FFFFFF" d="M39.8601,35.8454h4.8906l1.2586-4.4638H29.2877v4.4638h5.5379v17.8192h5.0345V35.8454z"/>
		<path fill="#FFFFFF" d="M46.3405,35.6654V46.105c0,5.1477,2.5892,7.8836,7.4798,7.8836c4.9266,0,7.5158-2.7359,7.5158-7.8836
			V35.6654h-4.8547V46.105c0,2.3759-0.7911,3.4198-2.6251,3.4198c-1.8699,0-2.6611-1.0439-2.6611-3.4198V35.6654H46.3405z"/>
		<path fill="#FFFFFF" d="M75.4691,35.6654h-4.3872v17.9992h4.8547v-9.6475c0-3.0599,0.863-4.2479,3.1645-4.2479
			c2.0138,0,2.769,1.116,2.769,4.1039v9.7915h4.8546V43.5131c0-5.3278-2.4453-8.1717-7.0123-8.1717
			c-1.834,0-3.0206,0.504-4.2433,1.836V35.6654z"/>
		<path fill="#FFFFFF" d="M88.8973,35.6654V46.105c0,5.1477,2.5892,7.8836,7.4798,7.8836c4.9266,0,7.5158-2.7359,7.5158-7.8836
			V35.6654h-4.8547V46.105c0,2.3759-0.7911,3.4198-2.6251,3.4198c-1.87,0-2.6611-1.0439-2.6611-3.4198V35.6654H88.8973z"/>
		<path fill="#FFFFFF" d="M120.7121,46.6809c0.2158-1.6559,0.2158-1.7639,0.2158-2.4838c0-2.3039-0.4316-4.2479-1.2586-5.6158
			c-1.2587-2.0879-3.4163-3.2399-6.1493-3.2399c-4.7828,0-7.9473,3.7799-7.9473,9.5396c0,5.6158,3.2365,9.1076,8.4507,9.1076
			c2.8409,0,4.7109-0.7559,6.7966-2.6999l-2.4453-3.2758c-1.6183,1.2959-2.4813,1.6559-4.0276,1.6559
			c-2.1576,0-3.3443-0.9359-3.8118-2.9879H120.7121z M110.4633,42.8651c0.4675-2.1599,1.4744-3.2039,3.0207-3.2039
			c1.6902,0,2.6611,1.188,2.733,3.2039H110.4633z"/>
		<path fill="#FFFFFF" d="M120.6476,35.6654l6.1853,17.9992h4.8187l6.1852-17.9992h-5.2862l-3.3084,11.1235l-3.3084-11.1235
			H120.6476z"/>
		<path fill="#FFFFFF" d="M140.0666,40.6692c2.0857-0.828,3.1285-1.0439,4.7108-1.0439c2.3015,0,3.2724,0.9719,3.5241,3.5278
			c-1.1147-0.828-2.3014-1.188-3.8837-1.188c-3.9557,0-6.5448,2.3399-6.5448,5.9398c0,3.7078,2.5891,6.0837,6.6527,6.0837
			c1.9419,0,3.1645-0.4679,4.2074-1.5839v1.2599h4.2433v-9.5755c0-5.9038-2.5172-8.7477-7.7675-8.7477
			c-2.5532,0-4.531,0.504-6.6527,1.728L140.0666,40.6692z M145.3887,45.961c2.0138,0,2.8409,0.54,2.8409,1.9079
			s-0.863,1.9439-2.8049,1.9439c-2.0498,0-2.8768-0.54-2.8768-1.9439C142.5479,46.573,143.4469,45.961,145.3887,45.961z"/>
		<path fill="#FFFFFF" d="M164.1968,40.6692c2.0857-0.828,3.1285-1.0439,4.7108-1.0439c2.3015,0,3.2724,0.9719,3.5242,3.5278
			c-1.1148-0.828-2.3015-1.188-3.8838-1.188c-3.9557,0-6.5448,2.3399-6.5448,5.9398c0,3.7078,2.5891,6.0837,6.6527,6.0837
			c1.9419,0,3.1645-0.4679,4.2074-1.5839v1.2599h4.2433v-9.5755c0-5.9038-2.5172-8.7477-7.7675-8.7477
			c-2.5532,0-4.531,0.504-6.6527,1.728L164.1968,40.6692z M169.5189,45.961c2.0138,0,2.8409,0.54,2.8409,1.9079
			s-0.863,1.9439-2.8049,1.9439c-2.0497,0-2.8768-0.54-2.8768-1.9439C166.6781,46.573,167.5771,45.961,169.5189,45.961z"/>
		<path fill="#FFFFFF" d="M183.9973,35.6654h-4.3872v24.551h4.8187v-7.7397c1.2227,1.08,2.3375,1.5119,3.9197,1.5119
			c4.8547,0,7.7316-3.5278,7.7316-9.4676c0-5.7597-2.769-9.1796-7.4079-9.1796c-2.0138,0-3.2724,0.504-4.6749,1.872V35.6654z
			 M187.8451,39.7692c2.3015,0,3.3084,1.512,3.3084,5.0038c0,3.4199-0.971,4.7878-3.3803,4.7878
			c-2.3375,0-3.3803-1.4759-3.3803-4.7878C184.3929,41.4252,185.5076,39.7692,187.8451,39.7692z"/>
		<path fill="#FFFFFF" d="M202.4598,35.6654h-4.3872v24.551h4.8187v-7.7397c1.2227,1.08,2.3374,1.5119,3.9197,1.5119
			c4.8547,0,7.7315-3.5278,7.7315-9.4676c0-5.7597-2.7689-9.1796-7.4078-9.1796c-2.0138,0-3.2725,0.504-4.6749,1.872V35.6654z
			 M206.3076,39.7692c2.3014,0,3.3083,1.512,3.3083,5.0038c0,3.4199-0.9709,4.7878-3.3803,4.7878
			c-2.3374,0-3.3803-1.4759-3.3803-4.7878C202.8553,41.4252,203.9701,39.7692,206.3076,39.7692z"/>
	</g>
	<g>
		<path fill="#FFFFFF" d="M41.4064,65.0417v7.9557c-1.2586-1.188-2.4453-1.656-4.1714-1.656c-4.603,0-7.3719,3.4559-7.3719,9.2156
			c0,5.9038,2.8768,9.4316,7.6596,9.4316c1.762,0,3.1645-0.5759,4.2073-1.7279v1.4039h4.4591V65.0417H41.4064z M38.0261,75.7692
			c2.3015,0,3.3803,1.62,3.3803,5.1118c0,3.3479-0.935,4.6798-3.3084,4.6798c-2.3734,0-3.3084-1.3679-3.3084-4.7878
			C34.7896,77.2812,35.7606,75.7692,38.0261,75.7692z"/>
		<path fill="#FFFFFF" d="M63.3285,82.6809c0.2158-1.6559,0.2158-1.7639,0.2158-2.4838c0-2.3039-0.4315-4.2479-1.2586-5.6158
			c-1.2587-2.0879-3.4163-3.2399-6.1493-3.2399c-4.7828,0-7.9473,3.7799-7.9473,9.5396c0,5.6158,3.2365,9.1076,8.4507,9.1076
			c2.8409,0,4.7109-0.7559,6.7966-2.6999l-2.4453-3.2758c-1.6182,1.2959-2.4813,1.6559-4.0276,1.6559
			c-2.1576,0-3.3443-0.9359-3.8118-2.9879H63.3285z M53.0798,78.8651c0.4674-2.1599,1.4743-3.2039,3.0206-3.2039
			c1.6902,0,2.6611,1.188,2.733,3.2039H53.0798z"/>
		<path fill="#FFFFFF" d="M77.5332,71.6654h-4.3871v17.9992h4.8546l-0.0359-9.6475c0-2.9879,0.863-4.2479,2.9128-4.2479
			c1.798,0,2.5172,0.972,2.5172,3.4199v10.4755h4.8547v-9.6475c0-3.0239,0.8271-4.2479,2.8768-4.2479
			c1.834,0,2.5173,0.936,2.5173,3.4199v10.4755h4.8547V78.8651c0-4.8238-2.4454-7.5237-6.7966-7.5237
			c-2.1936,0-3.8118,0.72-5.0345,2.3039c-1.2226-1.5479-2.9128-2.3039-5.0344-2.3039c-1.7981,0-2.9488,0.504-4.0996,1.836V71.6654z"
			/>
		<path fill="#FFFFFF" d="M113.2972,66.6256l-1.7981-3.7798l-6.1492,3.2399l0.0359,4.6078L113.2972,66.6256z M100.711,71.6654
			V82.105c0,5.1477,2.5891,7.8836,7.4798,7.8836c4.9266,0,7.5157-2.7359,7.5157-7.8836V71.6654h-4.8546V82.105
			c0,2.3759-0.7912,3.4198-2.6252,3.4198c-1.8699,0-2.661-1.0439-2.661-3.4198V71.6654H100.711z"/>
		<path fill="#FFFFFF" d="M116.9728,87.6847c1.7621,1.512,3.9916,2.3039,6.6887,2.3039c4.3512,0,7.0482-2.1959,7.0482-5.7237
			c0-2.8799-1.5822-4.4998-5.7896-5.8678c-1.9419-0.6479-2.3734-0.9359-2.3734-1.5479c0-0.792,0.5754-1.152,1.798-1.152
			c1.4384,0,2.5532,0.36,3.9916,1.332l1.7261-3.8878c-1.5822-1.188-3.596-1.8-5.7896-1.8c-3.9916,0-6.5808,2.1959-6.5808,5.5438
			c0,1.5839,0.6833,3.0239,1.9059,3.9238c0.7912,0.612,1.9059,1.116,3.5601,1.692c1.9419,0.6479,2.6251,1.1159,2.6251,1.8359
			c0,0.9359-0.6832,1.3319-2.3014,1.3319c-1.7981,0-2.8769-0.396-4.7828-1.8359L116.9728,87.6847z"/>
		<path fill="#FFFFFF" d="M139.0529,89.8086v-4.6078h-1.0788c-0.5754,0-0.6833-0.252-0.7192-1.2599V71.6654h-4.8547v12.5995
			c0,3.9238,1.5463,5.5437,5.2502,5.5437H139.0529z M134.8455,64.1777c-1.6182,0-2.8409,1.224-2.8409,2.8439
			c0,1.62,1.1867,2.8079,2.8049,2.8079c1.6542,0,2.8409-1.1879,2.8409-2.8439C137.6504,65.4017,136.4278,64.1777,134.8455,64.1777z"
			/>
		<path fill="#FFFFFF" d="M154.8435,73.7893c-2.1936-1.7999-3.9197-2.4479-6.5448-2.4479c-5.1783,0-8.4507,3.6359-8.4507,9.3956
			c0,5.7958,3.1645,9.2516,8.4507,9.2516c2.8768,0,4.6029-0.6479,6.8685-2.5559l-2.1936-3.5638
			c-1.7261,1.2959-2.805,1.6919-4.3513,1.6919c-2.4812,0-3.8477-1.7279-3.8477-4.8598c0-3.0958,1.4024-4.9318,3.7039-4.9318
			c1.4744,0,2.4813,0.396,4.1714,1.584L154.8435,73.7893z"/>
		<path fill="#FFFFFF" d="M157.9799,76.6692c2.0857-0.828,3.1286-1.044,4.7108-1.044c2.3015,0,3.2725,0.972,3.5242,3.5279
			c-1.1148-0.828-2.3015-1.188-3.8838-1.188c-3.9556,0-6.5448,2.3399-6.5448,5.9398c0,3.7078,2.5892,6.0837,6.6527,6.0837
			c1.9419,0,3.1645-0.4679,4.2074-1.5839v1.2599h4.2433v-9.5755c0-5.9038-2.5172-8.7477-7.7674-8.7477
			c-2.5532,0-4.5311,0.504-6.6527,1.728L157.9799,76.6692z M163.3021,81.961c2.0138,0,2.8409,0.54,2.8409,1.9079
			s-0.8631,1.9439-2.805,1.9439c-2.0497,0-2.8768-0.54-2.8768-1.9439C160.4612,82.573,161.3602,81.961,163.3021,81.961z"/>
	</g>
	<g>
		<path fill="#FFFFFF" d="M44.9665,118.6809c0.2158-1.6559,0.2158-1.7639,0.2158-2.4838c0-2.3039-0.4316-4.2479-1.2587-5.6158
			c-1.2586-2.0879-3.4162-3.2399-6.1492-3.2399c-4.7828,0-7.9473,3.7799-7.9473,9.5396c0,5.6158,3.2364,9.1076,8.4507,9.1076
			c2.8409,0,4.7109-0.7559,6.7966-2.6999l-2.4453-3.2758c-1.6183,1.2959-2.4813,1.6559-4.0276,1.6559
			c-2.1577,0-3.3444-0.9359-3.8119-2.9879H44.9665z M34.7177,114.8651c0.4675-2.1599,1.4744-3.2039,3.0207-3.2039
			c1.6902,0,2.6611,1.188,2.733,3.2039H34.7177z"/>
		<path fill="#FFFFFF" d="M46.3261,123.6847c1.762,1.512,3.9916,2.3039,6.6886,2.3039c4.3513,0,7.0483-2.1959,7.0483-5.7237
			c0-2.8799-1.5823-4.4998-5.7896-5.8678c-1.9419-0.6479-2.3734-0.9359-2.3734-1.5479c0-0.792,0.5753-1.152,1.798-1.152
			c1.4384,0,2.5532,0.36,3.9916,1.332l1.7261-3.8878c-1.5822-1.188-3.596-1.8-5.7896-1.8c-3.9917,0-6.5808,2.1959-6.5808,5.5438
			c0,1.5839,0.6832,3.0239,1.9059,3.9238c0.7911,0.612,1.9059,1.116,3.5601,1.692c1.9419,0.6479,2.6251,1.1159,2.6251,1.8359
			c0,0.9359-0.6832,1.3319-2.3015,1.3319c-1.798,0-2.8768-0.396-4.7827-1.8359L46.3261,123.6847z"/>
		<path fill="#FFFFFF" d="M71.6426,125.8086v-4.4278H69.485c-2.1217,0-2.9848-0.9359-2.9848-3.3478v-6.1198h4.0276l1.834-4.2478
			h-5.8616v-3.7438h-4.8546v14.2914c0,4.9678,2.5891,7.6316,7.4438,7.5956H71.6426z"/>
		<path fill="#FFFFFF" d="M85.3833,102.6256l-1.798-3.7798L77.4,102.0857l0.036,4.6078L85.3833,102.6256z M74.8468,112.6692
			c2.0858-0.828,3.1286-1.044,4.7109-1.044c2.3015,0,3.2724,0.972,3.5241,3.5279c-1.1148-0.828-2.3015-1.188-3.8837-1.188
			c-3.9557,0-6.5448,2.3399-6.5448,5.9398c0,3.7078,2.5891,6.0837,6.6527,6.0837c1.9418,0,3.1645-0.4679,4.2073-1.5839v1.2599
			h4.2434v-9.5755c0-5.9038-2.5172-8.7477-7.7675-8.7477c-2.5532,0-4.531,0.504-6.6527,1.728L74.8468,112.6692z M80.169,117.961
			c2.0138,0,2.8409,0.54,2.8409,1.9079s-0.8631,1.9439-2.8049,1.9439c-2.0498,0-2.8769-0.54-2.8769-1.9439
			C77.3281,118.5729,78.2271,117.961,80.169,117.961z"/>
		<path fill="#FFFFFF" d="M98.9771,112.6692c2.0857-0.828,3.1285-1.044,4.7108-1.044c2.3015,0,3.2724,0.972,3.5241,3.5279
			c-1.1148-0.828-2.3014-1.188-3.8837-1.188c-3.9557,0-6.5448,2.3399-6.5448,5.9398c0,3.7078,2.5891,6.0837,6.6527,6.0837
			c1.9418,0,3.1645-0.4679,4.2074-1.5839v1.2599h4.2433v-9.5755c0-5.9038-2.5172-8.7477-7.7675-8.7477
			c-2.5532,0-4.531,0.504-6.6527,1.728L98.9771,112.6692z M104.2992,117.961c2.0138,0,2.8409,0.54,2.8409,1.9079
			s-0.863,1.9439-2.8049,1.9439c-2.0498,0-2.8769-0.54-2.8769-1.9439C101.4583,118.5729,102.3574,117.961,104.2992,117.961z"/>
		<path fill="#FFFFFF" d="M125.6856,107.6654v1.332c-1.3305-1.224-2.4094-1.656-4.2793-1.656c-4.8906,0-7.8394,3.4199-7.8394,9.1796
			c0,5.8318,2.9847,9.4676,7.7675,9.4676c1.6901,0,2.8768-0.432,4.0276-1.5119v7.7397h4.8187v-24.551H125.6856z M121.9097,111.7692
			c2.3734,0,3.4882,1.62,3.4882,5.0038c0,3.3479-1.0428,4.7878-3.4882,4.7878c-2.3734,0-3.4162-1.4759-3.4162-4.8238
			C118.4935,113.3532,119.5723,111.7692,121.9097,111.7692z"/>
		<path fill="#FFFFFF" d="M132.6699,107.6654v10.4396c0,5.1477,2.5892,7.8836,7.4798,7.8836c4.9266,0,7.5158-2.7359,7.5158-7.8836
			v-10.4396h-4.8547v10.4396c0,2.3759-0.7911,3.4198-2.6251,3.4198c-1.87,0-2.6611-1.0439-2.6611-3.4198v-10.4396H132.6699z"/>
		<path fill="#FFFFFF" d="M157.1164,102.6256l-1.7621-3.7798l-6.1852,3.2399l0.036,4.6078L157.1164,102.6256z M156.6489,125.8086
			v-4.6078h-1.0788c-0.5754,0-0.6833-0.252-0.7192-1.2599v-12.2755h-4.8547v12.5995c0,3.9238,1.5463,5.5437,5.2502,5.5437H156.6489z
			"/>
		<path fill="#FFFFFF" d="M161.3098,120.4089c-1.6183,0-2.8409,1.2239-2.8409,2.8438c0,1.656,1.2226,2.8799,2.8768,2.8799
			c1.6183,0,2.8409-1.2239,2.8409-2.8439C164.1866,121.6328,162.964,120.4089,161.3098,120.4089z"/>
	</g>
</g>
<g id="YTMusicLogo_lg">
	<g id="logoText">
		<g id="music">
			<path fill="#FFFFFF" d="M198.0837,121.9953c-0.7899,4.0128-1.3903,8.9101-1.7062,10.9321h-0.2213
				c-0.2527-2.0853-0.8531-6.9511-1.6745-10.9004l-2.0221-9.8264h-6.1612v26.5088h3.8232v-21.8512l0.3791,2.0409l3.8861,19.8103
				h3.8232l3.823-19.8103l0.4105-2.0527v13.1361l0.0003,8.7269h3.823v-26.5088h-6.2242L198.0837,121.9953z"/>
			<path fill="#FFFFFF" d="M216.5991,134.7283c-0.3476,0.7267-1.1058,1.2322-1.8643,1.2322c-0.8846,0-1.2322-0.695-1.2322-2.4012
				v-14.2179h-4.3601v14.4707c0,3.5702,1.169,5.2132,3.76,5.2132c1.7691,0,3.1911-0.7899,4.1706-2.6856h0.0946l0.3791,2.3698h3.4124
				v-19.368h-4.3602V134.7283z"/>
			<path fill="#FFFFFF" d="M229.3953,126.9875c-1.4218-1.0426-2.3063-1.7379-2.3063-3.2543c0-1.0743,0.5055-1.6747,1.7062-1.6747
				c1.2322,0,1.643,0.8531,1.6745,3.76l3.6651-0.1581c0.2842-4.7078-1.2639-6.6667-5.2764-6.6667
				c-3.7283,0-5.5609,1.6747-5.5609,5.1186c0,3.1279,1.5166,4.5497,3.981,6.4137c2.1168,1.643,3.3492,2.5593,3.3492,3.8863
				c0,1.011-0.6321,1.7062-1.7379,1.7062c-1.2954,0-2.0536-1.2322-1.864-3.3807l-3.6966,0.0632
				c-0.5689,4.0125,1.0426,6.3505,5.3396,6.3505c3.7598,0,5.7187-1.7376,5.7187-5.2132
				C234.3876,130.779,232.8077,129.5151,229.3953,126.9875z"/>
			<rect x="236.7893" y="119.3414" fill="#FFFFFF" width="4.1706" height="19.368"/>
			<path fill="#FFFFFF" d="M238.906,111.6952c-1.6113,0-2.3695,0.6004-2.3695,2.6856c0,2.1485,0.7582,2.6856,2.3695,2.6856
				c1.643,0,2.3698-0.5371,2.3698-2.6856C241.2758,112.3902,240.549,111.6952,238.906,111.6952z"/>
			<path fill="#FFFFFF" d="M254.9883,131.7267l-3.8232-0.1895c0,3.4124-0.3791,4.5182-1.6745,4.5182s-1.5166-1.2322-1.5166-5.2449
				v-3.7598c0-3.8864,0.2527-5.1186,1.5481-5.1186c1.2007,0,1.5166,1.169,1.5166,4.771l3.7915-0.2528
				c0.2527-3.0016-0.1264-5.0554-1.2954-6.2244c-0.8531-0.853-2.1485-1.2636-3.9493-1.2636c-4.234,0-5.9717,2.2748-5.9717,8.6571
				v2.7171c0,6.5721,1.4849,8.6888,5.8136,8.6888c1.8326,0,3.0962-0.3791,3.9493-1.2005
				C254.6089,136.6872,255.0829,134.7283,254.9883,131.7267z"/>
		</g>
		<g id="youtube">
			<path fill="#FFFFFF" d="M106.1409,138.142c-0.8745-0.5894-1.4961-1.506-1.8644-2.7492c-0.3689-1.2428-0.553-2.8964-0.553-4.9614
				v-2.8124c0-2.0857,0.2103-3.7606,0.6319-5.0246c0.4213-1.264,1.0794-2.1853,1.9751-2.765
				c0.8953-0.5791,2.0699-0.869,3.5235-0.869c1.4325,0,2.5805,0.2952,3.4445,0.8848c0.8637,0.59,1.4955,1.5119,1.896,2.765
				c0.3999,1.2537,0.6005,2.9231,0.6005,5.0088v2.8124c0,2.0649-0.195,3.724-0.5846,4.9772c-0.39,1.2536-1.0221,2.1701-1.896,2.7492
				c-0.8745,0.5791-2.0594,0.869-3.5551,0.869C108.2211,139.0267,107.0148,138.7316,106.1409,138.142z M111.039,135.1082
				c0.2419-0.6319,0.3634-1.6639,0.3634-3.0968v-6.0358c0-1.3904-0.1215-2.4066-0.3634-3.0495
				c-0.2424-0.6424-0.6692-0.9638-1.2799-0.9638c-0.59,0-1.0063,0.3215-1.2482,0.9638c-0.2424,0.6429-0.3634,1.6591-0.3634,3.0495
				v6.0358c0,1.4328,0.1154,2.4649,0.3476,3.0968c0.2316,0.6321,0.6527,0.948,1.264,0.948
				C110.3698,136.0562,110.7966,135.7403,111.039,135.1082z"/>
			<path fill="#FFFFFF" d="M173.2591,130.4774v0.9797c0,1.2433,0.0362,2.1755,0.1105,2.7967
				c0.0735,0.6217,0.226,1.0745,0.4583,1.3589c0.2316,0.2844,0.5894,0.4267,1.0744,0.4267c0.6526,0,1.1006-0.253,1.3429-0.7585
				c0.2419-0.5056,0.3737-1.3481,0.3951-2.5281l3.7606,0.2211c0.021,0.1689,0.0316,0.4006,0.0316,0.6953
				c0,1.7909-0.4899,3.1285-1.4694,4.0133c-0.9795,0.8848-2.3651,1.3273-4.1556,1.3273c-2.1487,0-3.6554-0.674-4.5191-2.0226
				c-0.864-1.3479-1.2957-3.4335-1.2957-6.2569v-3.3815c0-2.9072,0.4476-5.0294,1.3433-6.3676
				c0.8953-1.3376,2.4279-2.0068,4.5979-2.0068c1.4957,0,2.6436,0.2741,3.4444,0.8218c0.8004,0.548,1.3639,1.4012,1.6908,2.5596
				c0.3265,1.1589,0.4899,2.7603,0.4899,4.8035v3.3181H173.2591z M173.8119,122.3244c-0.221,0.2739-0.3688,0.7217-0.4423,1.3429
				c-0.0742,0.6217-0.1105,1.5643-0.1105,2.8283v1.3905h3.1914v-1.3905c0-1.2427-0.0423-2.1855-0.1261-2.8283
				c-0.0846-0.6423-0.237-1.0951-0.4583-1.3587c-0.2213-0.2633-0.5638-0.3951-1.0271-0.3951
				C174.3754,121.9135,174.0332,122.0508,173.8119,122.3244z"/>
			<path fill="#FFFFFF" d="M95.5218,130.1147l-4.9614-17.9178h4.3293l1.738,8.1215c0.4426,2.0017,0.7688,3.7081,0.9796,5.1192
				h0.1264c0.1472-1.0112,0.474-2.7068,0.9796-5.0876l1.8012-8.1531h4.3295l-5.0246,17.9178v8.596h-4.2977V130.1147z"/>
			<path fill="#FFFFFF" d="M129.8753,119.3394v19.3712h-3.4129l-0.3793-2.37h-0.0947c-0.9274,1.7909-2.3178,2.686-4.1714,2.686
				c-1.2853,0-2.2333-0.4211-2.844-1.2639c-0.6113-0.8423-0.9164-2.1592-0.9164-3.9501v-14.4731h4.3609v14.2204
				c0,0.864,0.0948,1.4803,0.2843,1.8486c0.1897,0.3689,0.5056,0.553,0.948,0.553c0.3793,0,0.7427-0.1156,1.0903-0.3477
				c0.3477-0.2316,0.6054-0.5262,0.7743-0.8848v-15.3895H129.8753z"/>
			<path fill="#FFFFFF" d="M152.244,119.3394v19.3712h-3.4129l-0.3793-2.37h-0.0947c-0.9274,1.7909-2.3178,2.686-4.1714,2.686
				c-1.2853,0-2.2333-0.4211-2.844-1.2639c-0.6113-0.8423-0.9164-2.1592-0.9164-3.9501v-14.4731h4.3609v14.2204
				c0,0.864,0.0948,1.4803,0.2843,1.8486c0.1897,0.3689,0.5056,0.553,0.948,0.553c0.3793,0,0.7427-0.1156,1.0903-0.3477
				c0.3477-0.2316,0.6054-0.5262,0.7743-0.8848v-15.3895H152.244z"/>
			<path fill="#FFFFFF" d="M141.7254,115.7052h-4.3293v23.0054h-4.2661v-23.0054h-4.3293v-3.5077h12.9246V115.7052z"/>
			<path fill="#FFFFFF" d="M166.6771,122.4359c-0.2637-1.2215-0.6903-2.1063-1.28-2.6544c-0.59-0.5475-1.4012-0.8216-2.4332-0.8216
				c-0.8008,0-1.5485,0.2266-2.2436,0.6794c-0.6953,0.4532-1.2325,1.0483-1.6117,1.7856h-0.032l0.0004-10.2072h-4.2029v27.4928
				h3.6024l0.4424-1.8328h0.0948c0.3367,0.6532,0.8423,1.1691,1.5168,1.5485c0.674,0.3792,1.422,0.5687,2.2438,0.5687
				c1.4742,0,2.5595-0.6793,3.2548-2.0381c0.6951-1.359,1.0429-3.4811,1.0429-6.3676v-3.0653
				C167.0721,125.3542,166.9401,123.6582,166.6771,122.4359z M162.6795,130.3374c0,1.4117-0.0583,2.5178-0.1739,3.318
				c-0.116,0.801-0.311,1.3698-0.5846,1.7066c-0.274,0.3373-0.6429,0.5056-1.1059,0.5056c-0.3585,0-0.6903-0.084-0.9955-0.2529
				c-0.3056-0.1684-0.553-0.4211-0.7427-0.7583v-10.9972c0.1472-0.5262,0.3999-0.9583,0.7585-1.2956
				c0.3579-0.3367,0.7475-0.5056,1.1692-0.5056c0.4424,0,0.7846,0.1739,1.027,0.5214c0.2419,0.3475,0.4108,0.9322,0.5056,1.7539
				c0.0948,0.8216,0.1423,1.9907,0.1423,3.5076V130.3374z"/>
		</g>
	</g>
	<rect id="iconMask" x="-39.3333" y="108.6667" width="207.3333" height="33.3333"/>
	<g id="loz">
		<path id="loz_shape" fill="#ED2224" d="M171.2659,114.8301c-0.5082-1.9012-2.0056-3.3986-3.9068-3.9068
			C163.913,110,150.0947,110,150.0947,110s-13.8184,0-17.2645,0.9234c-1.9012,0.5082-3.3986,2.0056-3.9068,3.9068
			C128,118.2762,128,125.4662,128,125.4662s0,7.19,0.9234,10.6361c0.5082,1.9012,2.0055,3.3986,3.9068,3.9068
			c3.4461,0.9234,17.2645,0.9234,17.2645,0.9234s13.8184,0,17.2645-0.9234c1.9012-0.5082,3.3986-2.0055,3.9068-3.9068
			c0.9234-3.4461,0.9234-10.6361,0.9234-10.6361S172.1893,118.2762,171.2659,114.8301z"/>
	</g>
</g>
<g id="icon">
	<path id="circPath" fill="#ED2224" d="M118,125.5c0,17.9492,14.5508,32.5,32.5,32.5s32.5-14.5508,32.5-32.5S168.4492,93,150.5,93
		S118,107.5508,118,125.5"/>
	<path id="innerCirc" fill="#FFFFFF" d="M150.5,110.0042c8.5445,0,15.4958,6.9517,15.4958,15.4958
		c0,8.5445-6.9513,15.4958-15.4958,15.4958c-8.5442,0-15.4958-6.9513-15.4958-15.4958
		C135.0042,116.9558,141.9558,110.0042,150.5,110.0042 M150.5,108.5114c-9.3825,0-16.9886,7.6061-16.9886,16.9886
		s7.6061,16.9886,16.9886,16.9886c9.3825,0,16.9886-7.6061,16.9886-16.9886S159.8825,108.5114,150.5,108.5114"/>
	<polygon id="playTri" fill="#FFFFFF" points="144.5909,133.9943 158.9943,125.1307 144.5909,117.0057 	"/>
</g>
<g id="tag">
	<g>
		<path fill="#FFFFFF" d="M99.7461,135.1678c-0.9414,0.7378-2.0895,1.1527-3.2146,1.1527c-2.4339,0-3.7656-1.706-3.7656-4.8414
			c0-3.1123,1.3547-4.9105,3.6967-4.9105c1.0563,0,1.9747,0.3458,3.0768,1.1527l1.2859-2.0288
			c-1.5384-1.1527-2.7324-1.5907-4.3397-1.5907c-4.0182,0-6.3832,2.7895-6.3832,7.4926c0,4.5648,2.2731,7.193,6.2454,7.193
			c1.8599,0,3.3753-0.5303,4.6612-1.6369L99.7461,135.1678z"/>
		<path fill="#FFFFFF" d="M106.931,126.8452c-3.2605,0-5.1663,2.1671-5.1663,5.9019c0,3.8501,1.8599,6.0403,5.1663,6.0403
			c3.2605,0,5.1662-2.1902,5.1662-5.9711C112.0972,129.0123,110.2374,126.8452,106.931,126.8452z M106.931,129.1737
			c1.7221,0,2.6176,1.2911,2.6176,3.7809c0,2.3285-0.8726,3.5043-2.6176,3.5043c-1.7451,0-2.6176-1.1527-2.6176-3.5273
			C104.3134,130.4878,105.2089,129.1737,106.931,129.1737z"/>
		<path fill="#FFFFFF" d="M116.2213,127.0527h-2.2273v11.5272h2.5258v-6.2016c0-2.2132,0.6888-3.2046,2.2272-3.2046
			c1.4006,0,1.9976,0.7839,1.9976,2.6513v6.7549h2.5258v-6.2016c0-2.2132,0.6888-3.2046,2.2042-3.2046
			c1.3777,0,1.9747,0.7839,1.9747,2.6513v6.7549h2.5257v-6.9855c0-3.0662-1.4695-4.7492-4.133-4.7492
			c-1.4925,0-2.5257,0.5072-3.3064,1.6599c-0.7118-1.1527-1.791-1.6599-3.3982-1.6599c-1.3318,0-2.2043,0.415-2.9161,1.3602
			V127.0527z"/>
		<path fill="#FFFFFF" d="M133.4644,122.4188c-0.8725,0-1.5155,0.6455-1.5155,1.5216c0,0.8761,0.643,1.5216,1.5155,1.5216
			s1.5154-0.6455,1.5154-1.5216C134.9798,123.0643,134.3369,122.4188,133.4644,122.4188z M135.9212,138.6721v-2.4207h-0.3444
			c-0.6199,0-0.8496-0.3228-0.8496-1.1988v-7.9999h-2.5257v8.2074c0,2.4898,0.8496,3.412,3.1457,3.412H135.9212z"/>
		<path fill="#FFFFFF" d="M146.5147,133.8076c0.0689-0.5533,0.0918-0.9452,0.0918-1.3141c0-1.5215-0.2525-2.7434-0.7807-3.6195
			c-0.7577-1.3141-2.1124-2.0288-3.7886-2.0288c-3.0308,0-4.9825,2.3977-4.9825,6.1094c0,3.6195,1.9976,5.8328,5.304,5.8328
			c1.6762,0,2.9161-0.4611,4.0641-1.5216l-1.3088-1.7522c-0.8036,0.6686-1.5843,0.9683-2.5487,0.9683
			c-1.745,0-2.6864-0.876-2.916-2.6743H146.5147z M139.6493,131.7327c0.2296-1.706,1.0332-2.582,2.342-2.582
			c1.4007,0,2.1354,0.876,2.1354,2.582H139.6493z"/>
		<path fill="#FFFFFF" d="M150.8295,127.0527h-2.2272v11.5272h2.5257v-6.2016c0-2.2594,0.7348-3.2046,2.4798-3.2046
			c1.5844,0,2.2273,0.8991,2.2273,3.1123v6.2939h2.5257v-6.5244c0-3.4351-1.4925-5.2103-4.4085-5.2103
			c-1.4466,0-2.388,0.415-3.1228,1.3602V127.0527z"/>
		<path fill="#FFFFFF" d="M168.8704,127.0527h-8.0823v2.2132h4.156l-5.327,9.314h8.7252v-2.2363h-4.707L168.8704,127.0527z"/>
		<path fill="#FFFFFF" d="M171.0248,129.704c1.1022-0.4381,1.9058-0.5994,2.9161-0.5994c1.8599,0,2.6176,0.7838,2.6635,2.7434
			c-0.7347-0.3919-1.6532-0.5763-2.7783-0.5763c-2.5946,0-4.156,1.4063-4.156,3.7348c0,2.3745,1.5614,3.7809,4.2019,3.7809
			c1.5614,0,2.4339-0.3459,3.0539-1.1758v0.9683h2.1354v-6.1555c0-3.7809-1.5384-5.5792-4.7989-5.5792
			c-1.5614,0-2.8931,0.3228-4.0182,0.9683L171.0248,129.704z M174.3772,133.4388c1.5154,0,2.2272,0.5072,2.2272,1.5677
			c0,1.0835-0.7347,1.5907-2.2502,1.5907c-1.5384,0-2.2502-0.4841-2.2502-1.5446
			C172.104,133.946,172.8388,133.4388,174.3772,133.4388z"/>
		<path fill="#FFFFFF" d="M192.3759,138.6721v-2.3285h-1.0792c-1.6303,0-2.365-0.8069-2.365-2.5821v-4.4956h2.7783l0.9644-2.2132
			h-3.7427v-2.3976h-2.5258v9.2217c0,3.1815,1.5844,4.8183,4.6382,4.7953H192.3759z"/>
		<path fill="#FFFFFF" d="M193.975,127.0527v6.7319c0,3.3198,1.5614,5.0028,4.6382,5.0028c3.0997,0,4.6841-1.7061,4.6841-5.0028
			v-6.7319h-2.5258v6.7319c0,1.7982-0.6888,2.6512-2.1354,2.6512c-1.4465,0-2.1353-0.853-2.1353-2.6512v-6.7319H193.975z"/>
	</g>
	<g>
		<path fill="#FFFFFF" d="M80.8704,154.1122h-2.2273v15.7231h2.5028v-5.095c0.9184,0.8069,1.7221,1.1066,2.8931,1.1066
			c3.1457,0,4.9137-2.1902,4.9137-6.0633c0-3.7348-1.6991-5.8788-4.6611-5.8788c-1.5384,0-2.4339,0.3688-3.4212,1.3602V154.1122z
			 M83.8094,156.2332c1.768,0,2.5946,1.1989,2.5946,3.7118c0,2.4898-0.8036,3.5734-2.6405,3.5734
			c-1.814,0-2.6406-1.1527-2.6406-3.5965C81.1229,157.4782,82.0184,156.2332,83.8094,156.2332z"/>
		<path fill="#FFFFFF" d="M93.0766,154.1122h-2.2272v11.5272h2.5257v-5.6714c0-2.3746,0.8266-3.3198,2.939-3.389h0.3215v-2.559
			h-0.3215c-1.5384,0.0461-2.6405,0.5533-3.2375,1.4755V154.1122z"/>
		<path fill="#FFFFFF" d="M97.9913,154.1122v6.7319c0,3.3198,1.5613,5.0028,4.6381,5.0028c3.0998,0,4.6841-1.706,4.6841-5.0028
			v-6.7319h-2.5257v6.7319c0,1.7982-0.6889,2.6512-2.1354,2.6512c-1.4466,0-2.1354-0.853-2.1354-2.6512v-6.7319H97.9913z"/>
		<path fill="#FFFFFF" d="M118.4822,160.8671c0.0689-0.5533,0.0919-0.9452,0.0919-1.314c0-1.5216-0.2526-2.7435-0.7807-3.6196
			c-0.7577-1.3141-2.1124-2.0287-3.7886-2.0287c-3.0309,0-4.9826,2.3976-4.9826,6.1093c0,3.6196,1.9976,5.8328,5.304,5.8328
			c1.6762,0,2.9161-0.4611,4.0642-1.5216l-1.3088-1.7521c-0.8037,0.6685-1.5843,0.9682-2.5487,0.9682
			c-1.7451,0-2.6865-0.876-2.9161-2.6743H118.4822z M111.6168,158.7923c0.2296-1.7061,1.0333-2.5821,2.3421-2.5821
			c1.4006,0,2.1354,0.876,2.1354,2.5821H111.6168z"/>
		<path fill="#FFFFFF" d="M123.1277,149.8702h-2.4798v15.7692h2.2273v-1.0605c1.0332,0.9222,1.9057,1.268,3.1686,1.268
			c3.1457,0,4.9137-2.1902,4.9137-6.0633c0-3.7348-1.6991-5.8788-4.6382-5.8788c-1.4236,0-2.2502,0.3227-3.1916,1.2218V149.8702z
			 M125.8142,156.2332c1.768,0,2.5946,1.1989,2.5946,3.7118c0,2.4898-0.8036,3.5734-2.6405,3.5734
			c-1.791,0-2.6406-1.1527-2.6406-3.5965C123.1277,157.4782,124.0232,156.2332,125.8142,156.2332z"/>
		<path fill="#FFFFFF" d="M133.6969,156.7635c1.1022-0.438,1.9058-0.5994,2.9161-0.5994c1.8599,0,2.6176,0.7838,2.6635,2.7434
			c-0.7347-0.3919-1.6532-0.5763-2.7783-0.5763c-2.5946,0-4.156,1.4063-4.156,3.7348c0,2.3746,1.5614,3.7809,4.2019,3.7809
			c1.5614,0,2.4339-0.3458,3.0539-1.1758v0.9683h2.1354v-6.1555c0-3.7809-1.5384-5.5791-4.7989-5.5791
			c-1.5614,0-2.8931,0.3227-4.0182,0.9682L133.6969,156.7635z M137.0493,160.4983c1.5154,0,2.2272,0.5072,2.2272,1.5677
			c0,1.0835-0.7347,1.5907-2.2502,1.5907c-1.5384,0-2.2502-0.4841-2.2502-1.5446
			C134.7761,161.0055,135.5109,160.4983,137.0493,160.4983z"/>
		<path fill="#FFFFFF" d="M156.5864,154.1122v0.9914c-0.8266-0.83-1.7451-1.1988-3.0079-1.1988
			c-3.1228,0-4.9137,2.1671-4.9137,5.971c0,3.7118,1.745,5.7636,4.8677,5.7636c1.3777,0,2.2273-0.3458,3.0079-1.1758v0.1383
			c0,2.1671-1.1021,3.2046-3.3753,3.2046c-1.0791,0-1.9517-0.1844-2.9619-0.6225l-0.8955,2.0057
			c1.171,0.5995,2.4109,0.8761,3.9034,0.8761c3.6967,0,5.6714-1.8674,5.6714-5.3486v-10.605H156.5864z M153.831,156.2332
			c1.7451,0,2.5717,1.1297,2.5717,3.4812c0,2.4899-0.8037,3.5965-2.5946,3.5965c-1.768,0-2.5947-1.1297-2.5947-3.5734
			C151.2134,157.3398,152.0401,156.2332,153.831,156.2332z"/>
		<path fill="#FFFFFF" d="M163.4381,154.1122h-2.2272v11.5272h2.5257v-5.6714c0-2.3746,0.8266-3.3198,2.9391-3.389h0.3214v-2.559
			h-0.3214c-1.5384,0.0461-2.6406,0.5533-3.2376,1.4755V154.1122z"/>
		<path fill="#FFFFFF" d="M169.2552,156.7635c1.1022-0.438,1.9058-0.5994,2.9161-0.5994c1.8598,0,2.6176,0.7838,2.6635,2.7434
			c-0.7348-0.3919-1.6532-0.5763-2.7783-0.5763c-2.5946,0-4.156,1.4063-4.156,3.7348c0,2.3746,1.5614,3.7809,4.2019,3.7809
			c1.5614,0,2.4339-0.3458,3.0538-1.1758v0.9683h2.1354v-6.1555c0-3.7809-1.5384-5.5791-4.7989-5.5791
			c-1.5613,0-2.8931,0.3227-4.0182,0.9682L169.2552,156.7635z M172.6076,160.4983c1.5154,0,2.2272,0.5072,2.2272,1.5677
			c0,1.0835-0.7348,1.5907-2.2502,1.5907c-1.5384,0-2.2502-0.4841-2.2502-1.5446
			C170.3344,161.0055,171.0692,160.4983,172.6076,160.4983z"/>
		<path fill="#FFFFFF" d="M185.3791,165.7316v-2.3285h-1.0792c-1.6302,0-2.365-0.8069-2.365-2.5821v-4.4955h2.7783l0.9644-2.2133
			h-3.7427v-2.3976h-2.5257v9.2217c0,3.1815,1.5843,4.8184,4.6382,4.7953H185.3791z"/>
		<path fill="#FFFFFF" d="M186.9783,154.1122v6.7319c0,3.3198,1.5613,5.0028,4.6381,5.0028c3.0998,0,4.6841-1.706,4.6841-5.0028
			v-6.7319h-2.5257v6.7319c0,1.7982-0.6888,2.6512-2.1354,2.6512c-1.4466,0-2.1354-0.853-2.1354-2.6512v-6.7319H186.9783z"/>
		<path fill="#FFFFFF" d="M199.7566,149.4783c-0.8726,0-1.5155,0.6455-1.5155,1.5216c0,0.8761,0.6429,1.5216,1.5155,1.5216
			c0.8725,0,1.5154-0.6455,1.5154-1.5216C201.272,150.1238,200.6291,149.4783,199.7566,149.4783z M202.2134,165.7316v-2.4207
			h-0.3444c-0.62,0-0.8496-0.3228-0.8496-1.1988v-7.9999h-2.5257v8.2074c0,2.4898,0.8496,3.412,3.1457,3.412H202.2134z"/>
		<path fill="#FFFFFF" d="M209.691,165.7316v-2.3285h-1.0792c-1.6302,0-2.365-0.8069-2.365-2.5821v-4.4955h2.7783l0.9644-2.2133
			h-3.7427v-2.3976h-2.5257v9.2217c0,3.1815,1.5843,4.8184,4.6382,4.7953H209.691z"/>
		<path fill="#FFFFFF" d="M212.2752,156.7635c1.1022-0.438,1.9058-0.5994,2.9161-0.5994c1.8599,0,2.6176,0.7838,2.6635,2.7434
			c-0.7348-0.3919-1.6532-0.5763-2.7783-0.5763c-2.5946,0-4.156,1.4063-4.156,3.7348c0,2.3746,1.5614,3.7809,4.2019,3.7809
			c1.5614,0,2.4339-0.3458,3.0539-1.1758v0.9683h2.1353v-6.1555c0-3.7809-1.5384-5.5791-4.7988-5.5791
			c-1.5614,0-2.8932,0.3227-4.0183,0.9682L212.2752,156.7635z M215.6276,160.4983c1.5154,0,2.2272,0.5072,2.2272,1.5677
			c0,1.0835-0.7348,1.5907-2.2502,1.5907c-1.5384,0-2.2502-0.4841-2.2502-1.5446
			C213.3544,161.0055,214.0892,160.4983,215.6276,160.4983z"/>
	</g>
</g>
<g id="legal">
	<path fill="#808080" d="M113.605,220.5h0.5625l-2.4214-6.3984h-0.5142l-2.4214,6.3984h0.5669l0.6592-1.7974h2.9048L113.605,220.5z
		 M111.4868,214.7607l1.2832,3.4849h-2.5664L111.4868,214.7607z"/>
	<path fill="#808080" d="M118.8081,218.0962c0-0.7647-0.1619-1.3623-0.4856-1.793c-0.3237-0.4306-0.7698-0.646-1.3381-0.646
		c-0.6504,0-1.147,0.2535-1.4898,0.7603l-0.0263-0.6724h-0.4878v6.583h0.5229v-2.4258c0.3457,0.4571,0.8438,0.6856,1.4942,0.6856
		c0.5507,0,0.9902-0.2175,1.3183-0.6526c0.3281-0.4351,0.4922-1.0232,0.4922-1.7644V218.0962z M117.9094,219.6145
		c-0.2476,0.3531-0.5926,0.5295-1.0349,0.5295c-0.3193,0-0.5962-0.0717-0.8306-0.2153c-0.2344-0.1435-0.4146-0.3516-0.5405-0.624
		v-2.2808c0.1231-0.2958,0.3003-0.5214,0.5318-0.6767c0.2314-0.1553,0.5082-0.2329,0.8305-0.2329
		c0.4453,0,0.7925,0.1757,1.0415,0.5273c0.249,0.3516,0.3736,0.8306,0.3736,1.437
		C118.2808,218.7495,118.157,219.2615,117.9094,219.6145z"/>
	<path fill="#808080" d="M120.5615,213.75h-0.5273v6.75h0.5273V213.75z"/>
	<path fill="#808080" d="M122.5786,215.7451h-0.5273V220.5h0.5273V215.7451z M122.0557,214.6207
		c0.0644,0.0671,0.1523,0.1005,0.2636,0.1005s0.2-0.0334,0.2659-0.1005c0.0659-0.0669,0.0989-0.1499,0.0989-0.2489
		s-0.033-0.1827-0.0989-0.2511c-0.0659-0.0684-0.1546-0.1026-0.2659-0.1026s-0.1992,0.0342-0.2636,0.1026
		c-0.0645,0.0684-0.0967,0.1521-0.0967,0.2511S121.9912,214.5538,122.0557,214.6207z"/>
	<path fill="#808080" d="M124.655,219.6343c-0.2622-0.3398-0.3933-0.813-0.3933-1.4195v-0.1538
		c0-0.6181,0.1311-1.0986,0.3933-1.4414c0.2622-0.3427,0.6306-0.5141,1.1053-0.5141c0.372,0,0.6804,0.1142,0.925,0.3427
		c0.2446,0.2286,0.3786,0.5289,0.4021,0.9009h0.5054c-0.0235-0.5068-0.2044-0.9155-0.5428-1.2261
		c-0.3383-0.3105-0.7683-0.4658-1.2897-0.4658c-0.4102,0-0.7684,0.0982-1.0745,0.2945c-0.3062,0.1963-0.5413,0.4746-0.7053,0.8349
		c-0.1641,0.3604-0.2461,0.775-0.2461,1.2437v0.1582c0,0.7324,0.1823,1.3155,0.5471,1.749
		c0.3647,0.4336,0.8591,0.6504,1.4831,0.6504c0.3165,0,0.6131-0.0674,0.8899-0.2022c0.2769-0.1347,0.4988-0.3214,0.6658-0.5603
		c0.167-0.2387,0.2578-0.5031,0.2725-0.7932h-0.5054c-0.0205,0.3282-0.1546,0.5955-0.4021,0.802
		c-0.2476,0.2066-0.5545,0.3098-0.9207,0.3098C125.2871,220.144,124.9172,219.9742,124.655,219.6343z"/>
	<path fill="#808080" d="M132.207,220.5v-0.0527c-0.0966-0.2285-0.145-0.5728-0.145-1.0327v-2.25
		c-0.0088-0.4747-0.1663-0.8445-0.4724-1.1097c-0.3062-0.2651-0.7244-0.3977-1.2546-0.3977c-0.5128,0-0.9449,0.1385-1.2964,0.4153
		c-0.3516,0.2769-0.5274,0.6043-0.5274,0.9822l0.5274,0.0044c0-0.2637,0.1201-0.4893,0.3603-0.6768
		c0.2402-0.1874,0.5434-0.2812,0.9097-0.2812c0.4013,0,0.7068,0.0974,0.9163,0.2922c0.2094,0.1949,0.3142,0.4622,0.3142,0.802
		v0.5405h-0.9537c-0.6885,0-1.2253,0.1348-1.6105,0.4043c-0.3853,0.2696-0.5779,0.6358-0.5779,1.0987
		c0,0.3896,0.1413,0.7119,0.424,0.9668c0.2827,0.2548,0.6526,0.3823,1.1097,0.3823c0.3193,0,0.6218-0.0652,0.9074-0.1956
		c0.2857-0.1303,0.5208-0.3156,0.7054-0.5559c0.0146,0.293,0.0483,0.5142,0.101,0.6636H132.207z M129.2209,219.8584
		c-0.1977-0.1758-0.2966-0.397-0.2966-0.6636c0-0.3252,0.1479-0.5807,0.4439-0.7668c0.2958-0.186,0.706-0.282,1.2304-0.2879h0.9405
		v1.0459c-0.126,0.2842-0.3274,0.5113-0.6043,0.6812c-0.2768,0.1699-0.591,0.2549-0.9426,0.2549
		C129.6758,220.1221,129.4187,220.0342,129.2209,219.8584z"/>
	<path fill="#808080" d="M133.4639,215.7451V220.5h0.5229v-3.2563c0.1201-0.3457,0.3054-0.6204,0.5559-0.824
		c0.2505-0.2036,0.5384-0.3054,0.8636-0.3054c0.3896,0,0.673,0.104,0.8503,0.312c0.1772,0.208,0.2673,0.5244,0.2703,0.9492V220.5
		h0.5229v-3.1201c-0.0029-0.5742-0.1289-1.0049-0.3779-1.292c-0.2491-0.2871-0.6284-0.4307-1.1382-0.4307
		c-0.3223,0-0.6168,0.0769-0.8833,0.2307c-0.2666,0.1538-0.4893,0.3773-0.668,0.6702l-0.0176-0.813H133.4639z"/>
	<path fill="#808080" d="M142.8066,215.7144c-0.085-0.0381-0.2007-0.0572-0.3471-0.0572c-0.6153,0-1.0621,0.2813-1.3404,0.8438
		l-0.0087-0.7559h-0.5142V220.5h0.5229v-3.2651c0.0967-0.3486,0.2586-0.6145,0.4856-0.7976
		c0.227-0.1831,0.5047-0.2747,0.8328-0.2747c0.1259,0,0.2446,0.0103,0.356,0.0308L142.8066,215.7144z"/>
	<path fill="#808080" d="M147.0649,219.7485l-0.3295-0.2505c-0.1758,0.2257-0.3714,0.3897-0.5867,0.4922
		c-0.2154,0.1026-0.4636,0.1538-0.7449,0.1538c-0.4688,0-0.8577-0.1794-1.1667-0.5383c-0.3092-0.3588-0.4637-0.8078-0.4637-1.3469
		v-0.1011h3.3926v-0.2944c0-0.6826-0.1692-1.2209-0.5076-1.615c-0.3383-0.394-0.7961-0.5911-1.3732-0.5911
		c-0.3692,0-0.712,0.1048-1.0284,0.3142c-0.3164,0.2095-0.5632,0.4974-0.7404,0.8636c-0.1773,0.3662-0.2659,0.7778-0.2659,1.2348
		v0.189c0,0.4424,0.0908,0.8415,0.2724,1.1975c0.1817,0.356,0.4358,0.6336,0.7625,0.8328c0.3266,0.1992,0.6921,0.2988,1.0964,0.2988
		C146.1172,220.5879,146.6782,220.3082,147.0649,219.7485L147.0649,219.7485z M146.252,216.5361
		c0.246,0.2872,0.3764,0.6592,0.3911,1.1162v0.0572h-2.8521c0.0586-0.4893,0.2234-0.8789,0.4944-1.169
		c0.271-0.29,0.6042-0.435,0.9998-0.435C145.6835,216.1055,146.0059,216.249,146.252,216.5361z"/>
	<path fill="#808080" d="M150.6992,219.9023c-0.2256,0.1612-0.5215,0.2417-0.8877,0.2417c-0.3926,0-0.7083-0.0857-0.947-0.257
		c-0.2388-0.1714-0.3685-0.4109-0.3889-0.7185h-0.5274c0,0.4102,0.1721,0.7492,0.5164,1.0173
		c0.3442,0.2681,0.7932,0.4021,1.3469,0.4021c0.5215,0,0.9441-0.1201,1.2678-0.3604c0.3237-0.2401,0.4856-0.561,0.4856-0.9624
		c0-0.2461-0.0556-0.4555-0.167-0.6284c-0.1113-0.1728-0.282-0.3208-0.5119-0.4438c-0.23-0.1231-0.5757-0.2388-1.0371-0.3472
		c-0.4614-0.1083-0.7794-0.2278-0.9536-0.3582c-0.1744-0.1303-0.2615-0.3142-0.2615-0.5515c0-0.2461,0.1047-0.446,0.3142-0.5998
		c0.2094-0.1538,0.487-0.2307,0.8328-0.2307c0.3544,0,0.6482,0.0923,0.8811,0.2768c0.2329,0.1846,0.3493,0.4161,0.3493,0.6944
		h0.5274c0-0.4219-0.1604-0.7639-0.4812-1.0262c-0.3208-0.2621-0.7464-0.3933-1.2766-0.3933c-0.4893,0-0.8907,0.1224-1.2041,0.367
		c-0.3136,0.2446-0.4703,0.5544-0.4703,0.9294c0,0.2373,0.0564,0.4395,0.1692,0.6065c0.1128,0.167,0.2857,0.3083,0.5186,0.424
		c0.2329,0.1158,0.5603,0.2183,0.9822,0.3076c0.4218,0.0894,0.7375,0.2132,0.947,0.3714c0.2094,0.1582,0.3142,0.3677,0.3142,0.6284
		C151.0376,219.5376,150.9248,219.7413,150.6992,219.9023z"/>
	<path fill="#808080" d="M153.0371,214.5278v1.2173h-0.8745v0.4307h0.8745v3.1728c0,0.4073,0.082,0.7157,0.2461,0.9251
		c0.164,0.2095,0.4263,0.3142,0.7866,0.3142c0.2373,0,0.4248-0.0247,0.5625-0.074l-0.0219-0.427
		c-0.1964,0.0293-0.3384,0.044-0.4263,0.044c-0.2227,0-0.3817-0.0645-0.4768-0.1936c-0.0953-0.129-0.1428-0.3255-0.1428-0.5896
		v-3.1719h0.9843v-0.4307h-0.9843v-1.2173H153.0371z"/>
	<path fill="#808080" d="M157.8491,215.7144c-0.085-0.0381-0.2007-0.0572-0.3471-0.0572c-0.6153,0-1.0621,0.2813-1.3404,0.8438
		l-0.0088-0.7559h-0.5141V220.5h0.5229v-3.2651c0.0967-0.3486,0.2585-0.6145,0.4856-0.7976
		c0.227-0.1831,0.5046-0.2747,0.8328-0.2747c0.1259,0,0.2446,0.0103,0.3559,0.0308L157.8491,215.7144z"/>
	<path fill="#808080" d="M159.2554,215.7451h-0.5274V220.5h0.5274V215.7451z M158.7324,214.6207
		c0.0644,0.0671,0.1523,0.1005,0.2637,0.1005c0.1113,0,0.1999-0.0334,0.2659-0.1005c0.0659-0.0669,0.0988-0.1499,0.0988-0.2489
		s-0.0329-0.1827-0.0988-0.2511c-0.066-0.0684-0.1546-0.1026-0.2659-0.1026c-0.1114,0-0.1993,0.0342-0.2637,0.1026
		c-0.0645,0.0684-0.0967,0.1521-0.0967,0.2511S158.6679,214.5538,158.7324,214.6207z"/>
	<path fill="#808080" d="M161.3318,219.6343c-0.2622-0.3398-0.3933-0.813-0.3933-1.4195v-0.1538
		c0-0.6181,0.1311-1.0986,0.3933-1.4414c0.2621-0.3427,0.6306-0.5141,1.1052-0.5141c0.372,0,0.6804,0.1142,0.9251,0.3427
		c0.2445,0.2286,0.3786,0.5289,0.4021,0.9009h0.5053c-0.0235-0.5068-0.2043-0.9155-0.5427-1.2261
		c-0.3384-0.3105-0.7683-0.4658-1.2898-0.4658c-0.4102,0-0.7683,0.0982-1.0745,0.2945c-0.3061,0.1963-0.5412,0.4746-0.7053,0.8349
		c-0.1641,0.3604-0.2461,0.775-0.2461,1.2437v0.1582c0,0.7324,0.1824,1.3155,0.5472,1.749
		c0.3647,0.4336,0.8591,0.6504,1.4831,0.6504c0.3164,0,0.613-0.0674,0.8899-0.2022c0.2769-0.1347,0.4988-0.3214,0.6658-0.5603
		c0.167-0.2387,0.2577-0.5031,0.2724-0.7932h-0.5053c-0.0206,0.3282-0.1546,0.5955-0.4021,0.802
		c-0.2476,0.2066-0.5545,0.3098-0.9207,0.3098C161.9638,220.144,161.5939,219.9742,161.3318,219.6343z"/>
	<path fill="#808080" d="M165.968,219.6343c-0.2622-0.3398-0.3933-0.813-0.3933-1.4195v-0.1538
		c0-0.6181,0.1311-1.0986,0.3933-1.4414c0.2622-0.3427,0.6306-0.5141,1.1052-0.5141c0.3721,0,0.6804,0.1142,0.9251,0.3427
		c0.2446,0.2286,0.3786,0.5289,0.4021,0.9009h0.5054c-0.0235-0.5068-0.2044-0.9155-0.5428-1.2261
		c-0.3383-0.3105-0.7683-0.4658-1.2898-0.4658c-0.4102,0-0.7683,0.0982-1.0744,0.2945c-0.3062,0.1963-0.5413,0.4746-0.7053,0.8349
		c-0.1642,0.3604-0.2461,0.775-0.2461,1.2437v0.1582c0,0.7324,0.1823,1.3155,0.5471,1.749
		c0.3647,0.4336,0.8591,0.6504,1.4831,0.6504c0.3164,0,0.6131-0.0674,0.8899-0.2022c0.2769-0.1347,0.4988-0.3214,0.6658-0.5603
		c0.167-0.2387,0.2578-0.5031,0.2725-0.7932h-0.5054c-0.0205,0.3282-0.1546,0.5955-0.4021,0.802
		c-0.2476,0.2066-0.5545,0.3098-0.9207,0.3098C166.6001,220.144,166.2302,219.9742,165.968,219.6343z"/>
	<path fill="#808080" d="M170.5449,215.7451h-0.5273V220.5h0.5273V215.7451z M170.022,214.6207
		c0.0644,0.0671,0.1523,0.1005,0.2636,0.1005s0.2-0.0334,0.2659-0.1005c0.0659-0.0669,0.0989-0.1499,0.0989-0.2489
		s-0.033-0.1827-0.0989-0.2511c-0.0659-0.0684-0.1546-0.1026-0.2659-0.1026s-0.1992,0.0342-0.2636,0.1026
		c-0.0645,0.0684-0.0967,0.1521-0.0967,0.2511S169.9575,214.5538,170.022,214.6207z"/>
	<path fill="#808080" d="M171.6831,218.1577c0,0.7325,0.197,1.3206,0.5911,1.7644c0.394,0.4439,0.9059,0.6658,1.5359,0.6658
		c0.413,0,0.7807-0.0996,1.103-0.2988c0.3222-0.1992,0.572-0.4827,0.7493-0.8504c0.1772-0.3676,0.2658-0.7815,0.2658-1.2414v-0.1099
		c0-0.7324-0.1963-1.3206-0.5888-1.7644c-0.3927-0.4438-0.9053-0.6658-1.5381-0.6658c-0.4102,0-0.7772,0.1019-1.1009,0.3054
		c-0.3237,0.2037-0.5742,0.4886-0.7514,0.8548c-0.1773,0.3662-0.2659,0.7778-0.2659,1.2348V218.1577z M172.2104,218.1006
		c0-0.5947,0.148-1.0759,0.4439-1.4436c0.2959-0.3676,0.6782-0.5515,1.147-0.5515c0.3134,0,0.5917,0.0828,0.8349,0.2483
		c0.2432,0.1655,0.4321,0.3992,0.5669,0.7009c0.1347,0.3018,0.2022,0.6343,0.2022,0.9975v0.1011
		c0,0.5977-0.1472,1.0789-0.4417,1.4436c-0.2944,0.3648-0.6789,0.5471-1.1535,0.5471c-0.4776,0-0.8636-0.1823-1.158-0.5471
		c-0.2944-0.3647-0.4417-0.8312-0.4417-1.3996V218.1006z"/>
	<path fill="#808080" d="M177.0137,215.7451V220.5h0.5229v-3.2563c0.1201-0.3457,0.3054-0.6204,0.5559-0.824
		c0.2505-0.2036,0.5384-0.3054,0.8636-0.3054c0.3896,0,0.673,0.104,0.8503,0.312c0.1772,0.208,0.2673,0.5244,0.2703,0.9492V220.5
		h0.5229v-3.1201c-0.0029-0.5742-0.1289-1.0049-0.3779-1.292c-0.2491-0.2871-0.6284-0.4307-1.1382-0.4307
		c-0.3223,0-0.6167,0.0769-0.8833,0.2307c-0.2666,0.1538-0.4893,0.3773-0.668,0.6702l-0.0176-0.813H177.0137z"/>
	<path fill="#808080" d="M185.4819,219.7485l-0.3296-0.2505c-0.1757,0.2257-0.3713,0.3897-0.5866,0.4922
		c-0.2154,0.1026-0.4636,0.1538-0.7449,0.1538c-0.4688,0-0.8577-0.1794-1.1667-0.5383c-0.3092-0.3588-0.4637-0.8078-0.4637-1.3469
		v-0.1011h3.3926v-0.2944c0-0.6826-0.1692-1.2209-0.5076-1.615c-0.3383-0.394-0.7961-0.5911-1.3733-0.5911
		c-0.3691,0-0.7119,0.1048-1.0283,0.3142c-0.3164,0.2095-0.5632,0.4974-0.7405,0.8636c-0.1772,0.3662-0.2658,0.7778-0.2658,1.2348
		v0.189c0,0.4424,0.0908,0.8415,0.2724,1.1975c0.1817,0.356,0.4358,0.6336,0.7625,0.8328c0.3266,0.1992,0.6921,0.2988,1.0964,0.2988
		C184.5342,220.5879,185.0952,220.3082,185.4819,219.7485L185.4819,219.7485z M184.6689,216.5361
		c0.2461,0.2872,0.3765,0.6592,0.3912,1.1162v0.0572h-2.8521c0.0586-0.4893,0.2234-0.8789,0.4944-1.169
		c0.2709-0.29,0.6042-0.435,0.9997-0.435C184.1005,216.1055,184.4229,216.249,184.6689,216.5361z"/>
	<path fill="#808080" d="M189.1162,219.9023c-0.2256,0.1612-0.5215,0.2417-0.8877,0.2417c-0.3926,0-0.7083-0.0857-0.947-0.257
		c-0.2388-0.1714-0.3685-0.4109-0.3889-0.7185h-0.5274c0,0.4102,0.1721,0.7492,0.5164,1.0173
		c0.3442,0.2681,0.7932,0.4021,1.3469,0.4021c0.5215,0,0.9441-0.1201,1.2678-0.3604c0.3237-0.2401,0.4856-0.561,0.4856-0.9624
		c0-0.2461-0.0557-0.4555-0.167-0.6284c-0.1113-0.1728-0.282-0.3208-0.5119-0.4438c-0.23-0.1231-0.5757-0.2388-1.0371-0.3472
		c-0.4615-0.1083-0.7794-0.2278-0.9536-0.3582c-0.1744-0.1303-0.2615-0.3142-0.2615-0.5515c0-0.2461,0.1047-0.446,0.3142-0.5998
		c0.2094-0.1538,0.487-0.2307,0.8328-0.2307c0.3544,0,0.6481,0.0923,0.8811,0.2768c0.2329,0.1846,0.3493,0.4161,0.3493,0.6944
		h0.5274c0-0.4219-0.1604-0.7639-0.4812-1.0262c-0.3208-0.2621-0.7464-0.3933-1.2766-0.3933c-0.4893,0-0.8907,0.1224-1.2041,0.367
		c-0.3136,0.2446-0.4703,0.5544-0.4703,0.9294c0,0.2373,0.0564,0.4395,0.1692,0.6065c0.1128,0.167,0.2857,0.3083,0.5186,0.424
		c0.2329,0.1158,0.5603,0.2183,0.9822,0.3076c0.4218,0.0894,0.7375,0.2132,0.947,0.3714c0.2094,0.1582,0.3142,0.3677,0.3142,0.6284
		C189.4546,219.5376,189.3418,219.7413,189.1162,219.9023z"/>
</g>
</svg>
