<?xml version="1.0" encoding="utf-8"?>
<!-- Generator: Adobe Illustrator 23.0.6, SVG Export Plug-In . SVG Version: 6.00 Build 0)  -->
<svg version="1.1" xmlns="http://www.w3.org/2000/svg" xmlns:xlink="http://www.w3.org/1999/xlink" x="0px" y="0px"
	 viewBox="0 0 300 250" style="enable-background:new 0 0 300 250;" xml:space="preserve">
<style type="text/css">
	.st0{fill:#3C4043;}
	.st1{fill:#5F6368;}
	.st2{fill:#FFFFFF;}
	.st3{fill:#FBBC05;}
	.st4{fill:#4285F4;}
	.st5{fill:#34A853;}
	.st6{fill:#EA4335;}
</style>
<g id="cta_Text">
	<path class="st2" d="M31.74951,206.52637h1.59863v10.21973h-1.59863V206.52637z"/>
	<path class="st2" d="M35.41797,209.4668h1.49854v0.95605h0.07129c0.20947-0.34277,0.521-0.62598,0.93506-0.84961
		c0.41406-0.22266,0.854-0.33496,1.32031-0.33496c0.88525,0,1.55811,0.25977,2.02002,0.77734
		c0.46143,0.51953,0.69189,1.22559,0.69189,2.12012v4.61035h-1.56982v-4.39648c0-0.57031-0.14063-0.98926-0.42139-1.25586
		s-0.66846-0.39941-1.16309-0.39941c-0.35205,0-0.66602,0.09766-0.94189,0.29199c-0.27637,0.19531-0.49023,0.45508-0.64258,0.77832
		s-0.22852,0.6709-0.22852,1.04199v3.93945h-1.56982V209.4668z"/>
	<path class="st2" d="M44.25342,216.4248c-0.5332-0.36621-0.90918-0.83496-1.12793-1.40625l1.39893-0.61328
		c0.17139,0.38086,0.41162,0.6709,0.7207,0.87109c0.30908,0.19922,0.66406,0.29883,1.06348,0.29883
		c0.39014,0,0.71826-0.06836,0.98486-0.20605c0.26611-0.13867,0.3999-0.3457,0.3999-0.62109
		c0-0.2666-0.11426-0.47559-0.34277-0.62793s-0.58057-0.28613-1.05615-0.40039l-0.87061-0.21387
		c-0.58057-0.14258-1.06152-0.39453-1.44189-0.75684c-0.38037-0.36133-0.5708-0.81738-0.5708-1.37012
		c0-0.42773,0.12598-0.80371,0.37842-1.12695c0.25195-0.32422,0.59229-0.57324,1.02051-0.75
		c0.42822-0.17578,0.89404-0.26367,1.39844-0.26367c0.67578,0,1.27051,0.13574,1.78418,0.40625
		c0.51416,0.27148,0.88525,0.66406,1.11377,1.17773l-1.37061,0.59961c-0.27588-0.56152-0.78027-0.8418-1.5127-0.8418
		c-0.35254,0-0.64746,0.07129-0.88525,0.21387s-0.35693,0.32813-0.35693,0.55664c0,0.21875,0.09033,0.39746,0.27148,0.53516
		c0.18066,0.13867,0.44727,0.25488,0.79932,0.34961l1.07031,0.27148c0.71387,0.18066,1.25391,0.4541,1.62012,0.82031
		c0.36621,0.36719,0.5498,0.81641,0.5498,1.34961c0,0.45605-0.13086,0.8584-0.39258,1.20605s-0.62109,0.61621-1.07764,0.80664
		c-0.45703,0.18945-0.96143,0.28516-1.51318,0.28516C45.47119,216.97461,44.78613,216.79102,44.25342,216.4248z"/>
	<path class="st2" d="M52.646,216.81445c-0.28564-0.10645-0.51904-0.24707-0.69971-0.42188
		c-0.40918-0.41699-0.61377-0.98438-0.61377-1.70117v-3.83984H50.0625v-1.38477h1.27002v-2.05566h1.57031v2.05566h1.77002v1.38477
		h-1.77002v3.51172c0,0.39941,0.07568,0.68262,0.22803,0.84863c0.14307,0.19531,0.39014,0.29199,0.74268,0.29199
		c0.16162,0,0.3042-0.02148,0.42822-0.06348c0.12354-0.04297,0.25684-0.1123,0.39941-0.20703v1.52734
		c-0.31396,0.14258-0.69482,0.21387-1.14209,0.21387C53.23584,216.97461,52.93115,216.9209,52.646,216.81445z"/>
	<path class="st2" d="M56.91357,216.66797c-0.40918-0.20508-0.72803-0.49512-0.95605-0.87109
		c-0.22852-0.37598-0.34277-0.80176-0.34277-1.27734c0-0.75195,0.2832-1.34668,0.84912-1.78418
		c0.56641-0.4375,1.28223-0.65625,2.14844-0.65625c0.42822,0,0.81348,0.04004,1.15625,0.12109
		c0.34229,0.08105,0.61377,0.16895,0.81348,0.26367v-0.37109c0-0.44727-0.1665-0.81055-0.49951-1.0918
		c-0.3335-0.28027-0.76172-0.4209-1.28467-0.4209c-0.37109,0-0.7207,0.08105-1.04932,0.24219
		c-0.32813,0.16211-0.59229,0.38574-0.79199,0.6709l-1.09912-0.8418c0.32324-0.44727,0.74219-0.79492,1.25635-1.04199
		c0.51367-0.24707,1.08447-0.37109,1.7124-0.37109c1.05664,0,1.87012,0.25977,2.44092,0.77734
		c0.5708,0.51953,0.85645,1.24902,0.85645,2.19141v4.53906h-1.5415V215.875h-0.07129
		c-0.20947,0.31445-0.50439,0.57617-0.88525,0.78516c-0.38037,0.20996-0.81836,0.31445-1.31299,0.31445
		C57.78906,216.97461,57.32275,216.87207,56.91357,216.66797z M59.61133,215.4043c0.30469-0.18066,0.54248-0.42285,0.71387-0.72754
		s0.25684-0.63281,0.25684-0.98535c-0.21924-0.12305-0.47363-0.22363-0.76367-0.2998
		c-0.29053-0.07617-0.59229-0.11426-0.90625-0.11426c-0.59033,0-1.02295,0.11719-1.29883,0.34961
		c-0.27637,0.2334-0.41406,0.53516-0.41406,0.90625c0,0.33398,0.12842,0.60742,0.38525,0.82129s0.58984,0.32129,0.99902,0.32129
		C58.96436,215.67578,59.30664,215.58496,59.61133,215.4043z"/>
	<path class="st2" d="M63.83643,206.52637h1.56982v10.21973h-1.56982V206.52637z"/>
	<path class="st2" d="M67.24805,206.52637h1.56982v10.21973h-1.56982V206.52637z"/>
	<path class="st2" d="M75.00098,209.4668h1.49854v0.95605h0.07129c0.20947-0.34277,0.521-0.62598,0.93506-0.84961
		c0.41406-0.22266,0.854-0.33496,1.32031-0.33496c0.88525,0,1.55811,0.25977,2.02002,0.77734
		c0.46143,0.51953,0.69189,1.22559,0.69189,2.12012v4.61035h-1.56982v-4.39648c0-0.57031-0.14063-0.98926-0.42139-1.25586
		s-0.66846-0.39941-1.16309-0.39941c-0.35205,0-0.66602,0.09766-0.94189,0.29199c-0.27637,0.19531-0.49023,0.45508-0.64258,0.77832
		s-0.22852,0.6709-0.22852,1.04199v3.93945h-1.56982V209.4668z"/>
	<path class="st2" d="M84.74951,216.46777c-0.58057-0.33789-1.03223-0.80176-1.35596-1.3916
		c-0.32324-0.58984-0.48535-1.24609-0.48535-1.96973s0.16211-1.37988,0.48535-1.96973
		c0.32373-0.58984,0.77539-1.05371,1.35596-1.3916s1.23682-0.50684,1.96973-0.50684s1.38965,0.1709,1.96973,0.51367
		c0.58057,0.34277,1.03271,0.80859,1.35645,1.39844c0.32324,0.59082,0.48486,1.24219,0.48486,1.95605
		c0,0.72363-0.16162,1.37988-0.48486,1.96973c-0.32373,0.58984-0.77588,1.05371-1.35645,1.3916
		c-0.58008,0.33789-1.23682,0.50684-1.96973,0.50684S85.33008,216.80566,84.74951,216.46777z M87.83301,215.24023
		c0.34229-0.19531,0.61572-0.47559,0.82031-0.8418s0.30713-0.79688,0.30713-1.29199s-0.10254-0.92285-0.30713-1.28516
		c-0.20459-0.36133-0.47803-0.63965-0.82031-0.83496c-0.34277-0.19434-0.71387-0.29199-1.11377-0.29199
		c-0.39941,0-0.77051,0.09766-1.11328,0.29199c-0.34229,0.19531-0.61621,0.47363-0.8208,0.83496
		c-0.20459,0.3623-0.30664,0.79004-0.30664,1.28516s0.10205,0.92578,0.30664,1.29199s0.47852,0.64648,0.8208,0.8418
		c0.34277,0.19531,0.71387,0.29297,1.11328,0.29297C87.11914,215.5332,87.49023,215.43555,87.83301,215.24023z"/>
	<path class="st2" d="M91.01611,209.4668h1.69824l1.47021,5.20996h0.05713l1.6416-5.20996h1.61279l1.62744,5.20996h0.05713
		l1.46973-5.20996h1.67041l-2.32666,7.2793h-1.65576l-1.66992-5.22461h-0.04297l-1.65576,5.22461h-1.62744L91.01611,209.4668z"/>
</g>
<g id="headline" class="copyIn">
	<path class="st0" d="M21.59912,86.08887c-1.10449-0.8125-1.87891-1.9624-2.32324-3.44971l2.9209-1.15039
		c0.23047,0.87402,0.62109,1.57227,1.17285,2.09326c0.55273,0.52148,1.24219,0.78174,2.07031,0.78174
		c0.69043,0,1.28027-0.17236,1.77148-0.51709c0.49023-0.34521,0.73535-0.82422,0.73535-1.4375s-0.2334-1.11572-0.70117-1.50684
		s-1.2998-0.80859-2.49609-1.25342l-1.01172-0.36816c-1.05762-0.36768-1.96289-0.93115-2.71387-1.69043
		c-0.75098-0.75879-1.12695-1.71338-1.12695-2.86328c0-0.85889,0.22168-1.64063,0.66699-2.34619
		c0.44434-0.70508,1.07324-1.26074,1.88574-1.66748c0.8125-0.40625,1.73242-0.60938,2.76074-0.60938
		c1.48633,0,2.65918,0.34912,3.51855,1.04639c0.8584,0.69775,1.44922,1.51465,1.77051,2.44971L27.76318,74.75
		c-0.16895-0.50586-0.46387-0.93164-0.88574-1.27637c-0.42188-0.34521-0.96191-0.51758-1.62109-0.51758
		c-0.6748,0-1.23047,0.15723-1.66797,0.47119c-0.43652,0.31445-0.65527,0.72461-0.65527,1.23047
		c0,0.49121,0.20703,0.90869,0.62109,1.25391c0.41406,0.34473,1.0957,0.67822,2.04688,1.00049l1.03516,0.34473
		c1.42578,0.49121,2.51855,1.13867,3.27734,1.94385c0.75879,0.80469,1.13867,1.85938,1.13867,3.16211
		c0,1.07373-0.27637,1.98193-0.82813,2.72559c-0.55176,0.74414-1.26172,1.2998-2.12793,1.66748s-1.75879,0.55225-2.67969,0.55225
		C23.9751,87.30811,22.70264,86.90186,21.59912,86.08887z"/>
	<path class="st0" d="M33.54053,75.20996h2.8291v1.42578h0.18359c0.32227-0.50586,0.79004-0.93115,1.40332-1.27637
		c0.61328-0.34473,1.31836-0.51758,2.11621-0.51758c1.05762,0,2.01953,0.26465,2.88672,0.79346
		c0.86621,0.5293,1.54395,1.26904,2.03516,2.21973c0.49023,0.95068,0.73633,2.02393,0.73633,3.21973
		c0,1.21191-0.24609,2.28857-0.73633,3.23193c-0.49121,0.94287-1.16895,1.67871-2.03516,2.20801
		c-0.86719,0.52881-1.8291,0.79346-2.88672,0.79346c-0.79785,0-1.50684-0.16895-2.12793-0.50635
		c-0.62109-0.33691-1.08496-0.75879-1.3916-1.26465h-0.18359l0.18359,1.65576v4.71484h-3.0127V75.20996z M41.13037,84.08789
		c0.49121-0.29102,0.88184-0.69727,1.17285-1.21875c0.29199-0.52148,0.4375-1.11914,0.4375-1.79443
		c0-0.67432-0.14551-1.27246-0.4375-1.79395c-0.29102-0.521-0.68164-0.92334-1.17285-1.20752
		c-0.49023-0.2832-1.01953-0.42529-1.58691-0.42529c-0.55176,0-1.07324,0.14209-1.56348,0.42529
		c-0.49121,0.28418-0.88184,0.68652-1.17285,1.20752c-0.29199,0.52148-0.4375,1.11963-0.4375,1.79395
		c0,0.67529,0.14551,1.27295,0.4375,1.79443c0.29102,0.52148,0.68164,0.92773,1.17285,1.21875
		c0.49023,0.2915,1.01172,0.43701,1.56348,0.43701C40.11084,84.5249,40.64014,84.37939,41.13037,84.08789z"/>
	<path class="st0" d="M47.99756,70.47217h3.01367v16.46777h-3.01367V70.47217z"/>
	<path class="st0" d="M54.14795,73.34717c-0.38379-0.3833-0.5752-0.84326-0.5752-1.38037c0-0.53662,0.19141-0.99268,0.5752-1.36816
		c0.38281-0.37598,0.84277-0.56348,1.37988-0.56348s0.99316,0.1875,1.36914,0.56348c0.375,0.37549,0.56348,0.83154,0.56348,1.36816
		c0,0.53711-0.18848,0.99707-0.56348,1.38037c-0.37598,0.3833-0.83203,0.57471-1.36914,0.57471S54.53076,73.73047,54.14795,73.34717
		z M54.01025,75.20996h3.0127v11.72998h-3.0127V75.20996z"/>
	<path class="st0" d="M63.25146,87.03857c-0.49023-0.17969-0.88965-0.42627-1.19531-0.73926
		c-0.72168-0.70361-1.08105-1.7041-1.08105-3.00195v-5.51123h-2.04785v-2.57617h2.04785v-3.31201h3.0127v3.31201h2.875v2.57617
		h-2.875v4.99023c0,0.61475,0.12988,1.05615,0.39063,1.32422c0.21484,0.25244,0.58301,0.37842,1.10449,0.37842
		c0.29102,0,0.53223-0.03809,0.72461-0.11523c0.19141-0.07617,0.44043-0.20703,0.74707-0.39063v2.94385
		c-0.65918,0.26025-1.35645,0.39111-2.09277,0.39111C64.27881,87.30811,63.74268,87.21729,63.25146,87.03857z"/>
	<path class="st0" d="M76.36279,87.03857c-0.49023-0.17969-0.88965-0.42627-1.19531-0.73926
		c-0.72168-0.70361-1.08105-1.7041-1.08105-3.00195v-5.51123h-2.04785v-2.57617h2.04785v-3.31201h3.0127v3.31201h2.875v2.57617
		h-2.875v4.99023c0,0.61475,0.12988,1.05615,0.39063,1.32422c0.21484,0.25244,0.58301,0.37842,1.10449,0.37842
		c0.29102,0,0.53223-0.03809,0.72461-0.11523c0.19141-0.07617,0.44043-0.20703,0.74707-0.39063v2.94385
		c-0.65918,0.26025-1.35645,0.39111-2.09277,0.39111C77.39014,87.30811,76.854,87.21729,76.36279,87.03857z"/>
	<path class="st0" d="M82.4165,70.47217h3.01367v4.1626l-0.18457,2.04736h0.18457c0.33691-0.55225,0.82813-0.99658,1.47168-1.33398
		s1.3418-0.50635,2.09277-0.50635c1.42578,0,2.51855,0.42578,3.27734,1.27686c0.75977,0.85059,1.13867,2.02783,1.13867,3.53027
		v7.29102h-3.0127v-6.92285c0-0.75146-0.20313-1.33398-0.60938-1.74805s-0.94727-0.62109-1.62207-0.62109
		c-0.79688,0-1.45215,0.32178-1.96582,0.96582c-0.51465,0.64404-0.77051,1.43408-0.77051,2.36914v5.95703H82.4165V70.47217z"/>
	<path class="st0" d="M98.54443,86.50293c-0.93555-0.53662-1.66797-1.27637-2.19727-2.21973
		c-0.52832-0.94287-0.79297-2.00439-0.79297-3.18506c0-1.11914,0.26074-2.1582,0.78223-3.1167
		c0.52051-0.95801,1.24121-1.72119,2.16211-2.28857c0.91992-0.56689,1.94629-0.85107,3.08105-0.85107
		c1.21191,0,2.25488,0.26123,3.12891,0.78223c0.87402,0.52148,1.53711,1.23438,1.98926,2.13916s0.67871,1.90869,0.67871,3.0127
		c0,0.35303-0.02344,0.68994-0.06934,1.01221h-8.80859c0.15234,0.93555,0.52441,1.64453,1.11523,2.12744
		c0.58984,0.48291,1.29883,0.72461,2.12695,0.72461c0.69043,0,1.28418-0.1499,1.7832-0.44873
		c0.49805-0.29883,0.89258-0.70166,1.18457-1.20752l2.4375,1.19629c-1.19629,2.08545-3.0127,3.12793-5.45117,3.12793
		C100.52979,87.30811,99.479,87.03955,98.54443,86.50293z M104.47803,79.64893c-0.03125-0.36816-0.16504-0.73193-0.40234-1.09229
		c-0.23828-0.36035-0.56738-0.65918-0.98926-0.89697s-0.91602-0.35693-1.4834-0.35693c-0.7207,0-1.33789,0.21094-1.85156,0.63281
		s-0.88574,0.99268-1.11523,1.71338H104.47803z"/>
	<path class="st0" d="M117.60205,86.80176c-0.62109-0.33691-1.08496-0.75879-1.3916-1.26465h-0.18457v1.40283h-2.8291V70.47217
		h3.01367v4.50781l-0.18457,1.65576h0.18457c0.32129-0.50586,0.78906-0.93115,1.40234-1.27637
		c0.61328-0.34473,1.31934-0.51758,2.11621-0.51758c1.05762,0,2.02051,0.26465,2.88672,0.79346
		c0.86621,0.5293,1.54492,1.26904,2.03516,2.21973c0.49121,0.95068,0.73633,2.02393,0.73633,3.21973
		c0,1.21191-0.24512,2.28857-0.73633,3.23193c-0.49023,0.94287-1.16895,1.67871-2.03516,2.20801
		c-0.86621,0.52881-1.8291,0.79346-2.88672,0.79346C118.93213,87.30811,118.22217,87.13916,117.60205,86.80176z M120.78662,84.08789
		c0.49121-0.29102,0.88184-0.69727,1.17383-1.21875c0.29102-0.52148,0.43652-1.11914,0.43652-1.79443
		c0-0.67432-0.14551-1.27246-0.43652-1.79395c-0.29199-0.521-0.68262-0.92334-1.17383-1.20752
		c-0.49023-0.2832-1.01953-0.42529-1.58691-0.42529c-0.55176,0-1.07324,0.14209-1.56348,0.42529
		c-0.49121,0.28418-0.88184,0.68652-1.17285,1.20752c-0.29199,0.52148-0.4375,1.11963-0.4375,1.79395
		c0,0.67529,0.14551,1.27295,0.4375,1.79443c0.29102,0.52148,0.68164,0.92773,1.17285,1.21875
		c0.49023,0.2915,1.01172,0.43701,1.56348,0.43701C119.76709,84.5249,120.29639,84.37939,120.78662,84.08789z"/>
	<path class="st0" d="M127.8501,73.34717c-0.38379-0.3833-0.5752-0.84326-0.5752-1.38037c0-0.53662,0.19141-0.99268,0.5752-1.36816
		c0.38281-0.37598,0.84277-0.56348,1.37988-0.56348s0.99316,0.1875,1.36914,0.56348c0.375,0.37549,0.56348,0.83154,0.56348,1.36816
		c0,0.53711-0.18848,0.99707-0.56348,1.38037c-0.37598,0.3833-0.83203,0.57471-1.36914,0.57471
		S128.23291,73.73047,127.8501,73.34717z M127.7124,75.20996h3.0127v11.72998h-3.0127V75.20996z"/>
	<path class="st0" d="M133.72412,70.47217h3.01367v16.46777h-3.01367V70.47217z"/>
	<path class="st0" d="M139.62842,70.47217h3.01367v16.46777h-3.01367V70.47217z"/>
</g>
<g id="main_Copy">
	<g id="ln01" class="copyIn">
		<path class="st1" d="M20.99268,122.46484c-0.73828-0.53809-1.24463-1.29248-1.51904-2.26318l1.28174-0.52197
			c0.1792,0.67529,0.51172,1.229,0.99707,1.66162c0.48486,0.43262,1.05469,0.64844,1.70898,0.64844
			c0.65381,0,1.20801-0.17627,1.66162-0.52979s0.68018-0.83594,0.68018-1.44775c0-0.52783-0.19238-0.96289-0.57764-1.30566
			c-0.38477-0.34277-1.01514-0.66211-1.89063-0.95752l-0.7124-0.25293c-0.80176-0.28516-1.45557-0.65918-1.96191-1.12354
			s-0.75977-1.10791-0.75977-1.93066c0-0.53809,0.14795-1.03662,0.44336-1.49561c0.29492-0.4585,0.70654-0.8252,1.23389-1.09961
			c0.52783-0.27441,1.11816-0.41162,1.77246-0.41162s1.22363,0.12158,1.70898,0.36426s0.87305,0.53809,1.16309,0.88623
			s0.49316,0.69092,0.60938,1.02832l-1.26611,0.53809c-0.10547-0.39014-0.3457-0.74365-0.71973-1.06006
			c-0.37451-0.31641-0.86816-0.4751-1.47949-0.4751c-0.58057,0-1.07617,0.16406-1.48779,0.49072
			c-0.41113,0.32715-0.61719,0.73877-0.61719,1.23438c0,0.44287,0.17432,0.80469,0.52246,1.08398
			c0.34814,0.27979,0.87549,0.54053,1.58252,0.7832l0.74365,0.25342c0.95947,0.34814,1.70898,0.7832,2.24707,1.30518
			c0.53809,0.52246,0.80664,1.23193,0.80664,2.12842c0,0.72803-0.18701,1.33984-0.56152,1.83545
			c-0.37451,0.49609-0.84668,0.86035-1.4165,1.09229c-0.56934,0.23193-1.15479,0.34814-1.75635,0.34814
			C22.54346,123.27197,21.73096,123.00293,20.99268,122.46484z"/>
		<path class="st1" d="M30.51074,122.71777c-0.61182-0.36914-1.08936-0.87793-1.43213-1.52686s-0.51416-1.37939-0.51416-2.19189
			c0-0.78027,0.16064-1.49756,0.48242-2.15186c0.32178-0.65381,0.77783-1.17627,1.36865-1.56641s1.27637-0.58594,2.05713-0.58594
			c0.7915,0,1.47705,0.17725,2.05713,0.53027c0.58008,0.35352,1.02588,0.84131,1.3374,1.46387
			c0.31104,0.62256,0.4668,1.33447,0.4668,2.13623c0,0.1582-0.01563,0.29541-0.04736,0.41162h-6.37744
			c0.03174,0.61182,0.1792,1.12891,0.44336,1.55029c0.26367,0.42236,0.59863,0.73877,1.00488,0.94971
			c0.40576,0.21094,0.83057,0.31641,1.27393,0.31641c1.03369,0,1.83008-0.48486,2.38916-1.45557l1.13916,0.55371
			c-0.34814,0.6543-0.82031,1.1709-1.41602,1.55078c-0.59619,0.37988-1.31592,0.56982-2.16016,0.56982
			C31.81348,123.27197,31.12256,123.08691,30.51074,122.71777z M34.90967,118.12891c-0.021-0.3374-0.11621-0.6748-0.28467-1.0127
			c-0.16895-0.3374-0.43506-0.62256-0.79932-0.85449c-0.36377-0.23193-0.82031-0.34814-1.36865-0.34814
			c-0.63281,0-1.16846,0.20313-1.60596,0.60938c-0.43799,0.40625-0.72559,0.94141-0.86279,1.60596H34.90967z"/>
		<path class="st1" d="M38.0083,114.94824h1.28174v1.18701h0.06299c0.22168-0.40088,0.5752-0.74121,1.06055-1.021
			c0.48486-0.2793,1.00195-0.41943,1.55078-0.41943c0.97021,0,1.71143,0.28271,2.22314,0.84668
			c0.51123,0.56445,0.76709,1.33203,0.76709,2.30273v5.17432h-1.34473v-4.96875c0-0.74902-0.17969-1.29199-0.53809-1.62988
			c-0.35889-0.3374-0.84912-0.50635-1.47168-0.50635c-0.43262,0-0.82031,0.12158-1.16309,0.36377
			c-0.34277,0.24316-0.60889,0.56201-0.79883,0.95752s-0.28516,0.80957-0.28516,1.24219v4.5415H38.0083V114.94824z"/>
		<path class="st1" d="M48.4751,122.71777c-0.58545-0.36914-1.04688-0.87793-1.38428-1.52686
			c-0.33789-0.64893-0.50635-1.38477-0.50635-2.20752c0-0.81201,0.16846-1.54541,0.50635-2.19971
			c0.3374-0.65381,0.79883-1.16553,1.38428-1.53467c0.58594-0.36914,1.23682-0.5542,1.95459-0.5542
			c0.62207,0,1.17627,0.14014,1.66162,0.41943c0.48486,0.27979,0.85449,0.625,1.10742,1.03662h0.06348l-0.06348-1.12354v-3.33887
			h1.34521v11.33008h-1.28174v-1.18701h-0.06348c-0.25293,0.40137-0.62256,0.7417-1.10742,1.021
			c-0.48535,0.2793-1.03955,0.41943-1.66162,0.41943C49.71191,123.27197,49.06104,123.08691,48.4751,122.71777z M51.90918,121.67334
			c0.40576-0.25293,0.73291-0.61133,0.98096-1.07568s0.37207-1.00244,0.37207-1.61426s-0.12402-1.1499-0.37207-1.61426
			c-0.24805-0.46387-0.5752-0.82275-0.98096-1.07568c-0.40625-0.25342-0.84668-0.37988-1.32129-0.37988
			c-0.46436,0-0.90186,0.12646-1.31348,0.37988c-0.41162,0.25293-0.74121,0.61475-0.98877,1.08398
			c-0.24805,0.46924-0.37207,1.00439-0.37207,1.60596c0,0.60107,0.12402,1.13672,0.37207,1.60596
			c0.24756,0.46973,0.57715,0.83105,0.98877,1.08398c0.41162,0.25342,0.84912,0.37988,1.31348,0.37988
			C51.0625,122.05322,51.50293,121.92676,51.90918,121.67334z"/>
		<path class="st1" d="M60.12939,122.92383c-0.46436-0.23193-0.82275-0.55127-1.07568-0.95752
			c-0.25342-0.40625-0.37988-0.86768-0.37988-1.38477c0-0.85449,0.32178-1.52148,0.96533-2.00146
			c0.64307-0.47998,1.45557-0.72021,2.43701-0.72021c0.48486,0,0.93604,0.05273,1.35254,0.1582
			c0.41699,0.10547,0.73584,0.22705,0.95752,0.36377v-0.49023c0-0.60156-0.21094-1.08398-0.63281-1.44775
			c-0.42236-0.36426-0.95508-0.54639-1.59814-0.54639c-0.4541,0-0.87061,0.09766-1.25049,0.29297
			c-0.37939,0.19531-0.68018,0.4668-0.90186,0.81494l-1.0127-0.75977c0.31641-0.48486,0.75146-0.86475,1.30566-1.13916
			c0.55371-0.27393,1.16797-0.41162,1.84326-0.41162c1.09717,0,1.95947,0.2876,2.5874,0.86279
			c0.62744,0.5752,0.94141,1.3584,0.94141,2.34961v5.11133h-1.28174v-1.15527h-0.06348
			c-0.23193,0.39063-0.58008,0.72266-1.04395,0.99707c-0.46436,0.27393-0.98682,0.41162-1.56689,0.41162
			C61.12109,123.27197,60.59375,123.15576,60.12939,122.92383z M63.10449,121.73682c0.39014-0.23193,0.70166-0.54346,0.93359-0.93359
			s0.34814-0.81738,0.34814-1.28174c-0.25293-0.16846-0.56445-0.30615-0.93359-0.41162
			c-0.36914-0.10498-0.75977-0.1582-1.1709-0.1582c-0.73877,0-1.29541,0.15332-1.66943,0.45898
			c-0.37451,0.30615-0.56201,0.70166-0.56201,1.18701c0,0.44287,0.16895,0.80176,0.50635,1.07568
			c0.33789,0.27441,0.76514,0.41162,1.28174,0.41162C62.29199,122.08496,62.71436,121.96875,63.10449,121.73682z"/>
		<path class="st1" d="M67.67773,114.94824h1.28174v1.18701h0.06299c0.22168-0.40088,0.5752-0.74121,1.06055-1.021
			c0.48486-0.2793,1.00195-0.41943,1.55078-0.41943c0.97021,0,1.71143,0.28271,2.22314,0.84668
			c0.51172,0.56445,0.76758,1.33203,0.76758,2.30273v5.17432H73.2793v-4.96875c0-0.74902-0.17969-1.29199-0.53809-1.62988
			c-0.35889-0.3374-0.84912-0.50635-1.47168-0.50635c-0.43262,0-0.82031,0.12158-1.16309,0.36377
			c-0.34277,0.24316-0.60889,0.56201-0.79883,0.95752s-0.28516,0.80957-0.28516,1.24219v4.5415h-1.34473V114.94824z"/>
		<path class="st1" d="M78.14404,122.71777c-0.58545-0.36914-1.04688-0.87793-1.38428-1.52686
			c-0.33789-0.64893-0.50635-1.38477-0.50635-2.20752c0-0.81201,0.16846-1.54541,0.50635-2.19971
			c0.3374-0.65381,0.79883-1.16553,1.38428-1.53467c0.58594-0.36914,1.23682-0.5542,1.95459-0.5542
			c0.62207,0,1.17627,0.14014,1.66162,0.41943c0.48486,0.27979,0.85449,0.625,1.10742,1.03662h0.06348l-0.06348-1.12354v-3.33887
			h1.34521v11.33008h-1.28174v-1.18701h-0.06348c-0.25293,0.40137-0.62256,0.7417-1.10742,1.021
			c-0.48535,0.2793-1.03955,0.41943-1.66162,0.41943C79.38086,123.27197,78.72998,123.08691,78.14404,122.71777z M81.57813,121.67334
			c0.40576-0.25293,0.73291-0.61133,0.98096-1.07568s0.37207-1.00244,0.37207-1.61426s-0.12402-1.1499-0.37207-1.61426
			c-0.24805-0.46387-0.5752-0.82275-0.98096-1.07568c-0.40625-0.25342-0.84668-0.37988-1.32129-0.37988
			c-0.46436,0-0.90186,0.12646-1.31348,0.37988c-0.41162,0.25293-0.74121,0.61475-0.98877,1.08398
			c-0.24805,0.46924-0.37207,1.00439-0.37207,1.60596c0,0.60107,0.12402,1.13672,0.37207,1.60596
			c0.24756,0.46973,0.57715,0.83105,0.98877,1.08398c0.41162,0.25342,0.84912,0.37988,1.31348,0.37988
			C80.73145,122.05322,81.17188,121.92676,81.57813,121.67334z"/>
		<path class="st1" d="M88.80176,114.94824h1.28174v1.29736h0.06299c0.1582-0.44287,0.46436-0.81201,0.91797-1.10742
			s0.92822-0.44336,1.42432-0.44336c0.36914,0,0.68555,0.05811,0.94922,0.17432v1.43994
			c-0.33789-0.16846-0.71729-0.25293-1.13916-0.25293c-0.39063,0-0.74902,0.11084-1.07617,0.33301
			c-0.32715,0.22168-0.58838,0.52051-0.7832,0.896c-0.19531,0.375-0.29297,0.77979-0.29297,1.21289v4.52051h-1.34473V114.94824z"/>
		<path class="st1" d="M96.16943,122.71777c-0.61182-0.36914-1.08936-0.87793-1.43213-1.52686s-0.51416-1.37939-0.51416-2.19189
			c0-0.78027,0.16064-1.49756,0.48242-2.15186c0.32178-0.65381,0.77783-1.17627,1.36865-1.56641s1.27637-0.58594,2.05713-0.58594
			c0.7915,0,1.47705,0.17725,2.05713,0.53027c0.58008,0.35352,1.02588,0.84131,1.3374,1.46387
			c0.31104,0.62256,0.4668,1.33447,0.4668,2.13623c0,0.1582-0.01563,0.29541-0.04736,0.41162h-6.37744
			c0.03174,0.61182,0.1792,1.12891,0.44336,1.55029c0.26367,0.42236,0.59863,0.73877,1.00488,0.94971
			c0.40576,0.21094,0.83057,0.31641,1.27393,0.31641c1.03369,0,1.83008-0.48486,2.38916-1.45557l1.13916,0.55371
			c-0.34814,0.6543-0.82031,1.1709-1.41602,1.55078c-0.59619,0.37988-1.31592,0.56982-2.16016,0.56982
			C97.47217,123.27197,96.78125,123.08691,96.16943,122.71777z M100.56836,118.12891c-0.021-0.3374-0.11621-0.6748-0.28467-1.0127
			c-0.16895-0.3374-0.43506-0.62256-0.79932-0.85449c-0.36377-0.23193-0.82031-0.34814-1.36865-0.34814
			c-0.63281,0-1.16846,0.20313-1.60596,0.60938c-0.43799,0.40625-0.72559,0.94141-0.86279,1.60596H100.56836z"/>
		<path class="st1" d="M105.21631,122.70996c-0.62256-0.37451-1.10791-0.88623-1.45605-1.53516
			c-0.34814-0.64844-0.52197-1.37891-0.52197-2.19141c0-0.81201,0.17383-1.54541,0.52197-2.19971
			c0.34814-0.65381,0.8335-1.16553,1.45605-1.53467c0.62158-0.36914,1.32324-0.5542,2.104-0.5542
			c0.87549,0,1.61133,0.20361,2.20752,0.60938c0.5957,0.40625,1.02051,0.94727,1.27393,1.62207l-1.21875,0.50635
			c-0.2002-0.49561-0.49854-0.87256-0.89404-1.13135c-0.39551-0.2583-0.87305-0.3877-1.43213-0.3877
			c-0.47461,0-0.91748,0.12939-1.3291,0.3877c-0.41162,0.25879-0.74072,0.61963-0.98828,1.08398
			c-0.24805,0.46436-0.37207,0.99658-0.37207,1.59814c0,0.60107,0.12402,1.13428,0.37207,1.59814
			c0.24756,0.46436,0.57666,0.82568,0.98828,1.08398c0.41162,0.25879,0.85449,0.3877,1.3291,0.3877
			c0.56982,0,1.06055-0.13184,1.47168-0.39551c0.41162-0.26367,0.71729-0.63818,0.91797-1.12354l1.20264,0.50635
			c-0.27441,0.66455-0.71484,1.20264-1.32129,1.61426c-0.60693,0.41113-1.34277,0.61719-2.20752,0.61719
			C106.53955,123.27197,105.83789,123.08447,105.21631,122.70996z"/>
		<path class="st1" d="M113.81738,122.71777c-0.61182-0.36914-1.08936-0.87793-1.43213-1.52686s-0.51416-1.37939-0.51416-2.19189
			c0-0.78027,0.16064-1.49756,0.48242-2.15186c0.32178-0.65381,0.77783-1.17627,1.36865-1.56641s1.27637-0.58594,2.05713-0.58594
			c0.7915,0,1.47705,0.17725,2.05713,0.53027c0.58008,0.35352,1.02588,0.84131,1.3374,1.46387
			c0.31104,0.62256,0.4668,1.33447,0.4668,2.13623c0,0.1582-0.01563,0.29541-0.04736,0.41162h-6.37744
			c0.03174,0.61182,0.1792,1.12891,0.44336,1.55029c0.26367,0.42236,0.59863,0.73877,1.00488,0.94971
			c0.40576,0.21094,0.83057,0.31641,1.27393,0.31641c1.03369,0,1.83008-0.48486,2.38916-1.45557l1.13916,0.55371
			c-0.34814,0.6543-0.82031,1.1709-1.41602,1.55078c-0.59619,0.37988-1.31592,0.56982-2.16016,0.56982
			C115.12012,123.27197,114.4292,123.08691,113.81738,122.71777z M118.21631,118.12891c-0.021-0.3374-0.11621-0.6748-0.28467-1.0127
			c-0.16895-0.3374-0.43506-0.62256-0.79932-0.85449c-0.36377-0.23193-0.82031-0.34814-1.36865-0.34814
			c-0.63281,0-1.16846,0.20313-1.60596,0.60938c-0.43799,0.40625-0.72559,0.94141-0.86279,1.60596H118.21631z"/>
		<path class="st1" d="M121.33398,113.19189c-0.18994-0.18994-0.28516-0.41699-0.28516-0.68066s0.09521-0.48779,0.28516-0.67236
			c0.18945-0.18457,0.4165-0.27686,0.68018-0.27686s0.49072,0.09229,0.68066,0.27686s0.28467,0.40869,0.28467,0.67236
			s-0.09229,0.49072-0.27686,0.68066s-0.41406,0.28467-0.68848,0.28467C121.75049,113.47656,121.52344,113.38184,121.33398,113.19189
			z M121.34961,114.94824h1.3291v8.07031h-1.3291V114.94824z"/>
		<path class="st1" d="M123.97168,114.94824h1.43994l2.5,6.48779h0.03174l2.53174-6.48779h1.40869l-3.2915,8.07031h-1.36084
			L123.97168,114.94824z"/>
		<path class="st1" d="M134.29834,122.71777c-0.61182-0.36914-1.08936-0.87793-1.43213-1.52686s-0.51416-1.37939-0.51416-2.19189
			c0-0.78027,0.16064-1.49756,0.48242-2.15186c0.32178-0.65381,0.77783-1.17627,1.36865-1.56641s1.27637-0.58594,2.05664-0.58594
			c0.7915,0,1.47705,0.17725,2.05713,0.53027c0.58008,0.35352,1.02588,0.84131,1.3374,1.46387
			c0.31104,0.62256,0.4668,1.33447,0.4668,2.13623c0,0.1582-0.01563,0.29541-0.04736,0.41162h-6.37695
			c0.03174,0.61182,0.1792,1.12891,0.44336,1.55029c0.26367,0.42236,0.59863,0.73877,1.00488,0.94971
			c0.40576,0.21094,0.83008,0.31641,1.27344,0.31641c1.03369,0,1.83008-0.48486,2.38916-1.45557l1.13916,0.55371
			c-0.34814,0.6543-0.82031,1.1709-1.41602,1.55078c-0.59619,0.37988-1.31592,0.56982-2.16016,0.56982
			C135.60107,123.27197,134.91016,123.08691,134.29834,122.71777z M138.69678,118.12891c-0.021-0.3374-0.11621-0.6748-0.28467-1.0127
			c-0.16895-0.3374-0.43506-0.62256-0.79932-0.85449c-0.36377-0.23193-0.82031-0.34814-1.36865-0.34814
			c-0.63232,0-1.16797,0.20313-1.60547,0.60938c-0.43799,0.40625-0.72559,0.94141-0.86279,1.60596H138.69678z"/>
		<path class="st1" d="M19.99609,133.94824h1.28174v1.18652h0.06299c0.23193-0.41113,0.58008-0.75391,1.04443-1.02832
			s0.95459-0.41113,1.47168-0.41113c0.59082,0,1.10498,0.14258,1.54297,0.42676c0.4375,0.28516,0.75146,0.66504,0.94141,1.13965
			c0.28516-0.47461,0.66211-0.85449,1.13135-1.13965c0.46973-0.28418,1.01563-0.42676,1.63818-0.42676
			c0.92822,0,1.62695,0.28223,2.09668,0.84668c0.46924,0.56445,0.7041,1.33203,0.7041,2.30176v5.1748h-1.3291v-4.96875
			c0-0.74902-0.15332-1.29199-0.45898-1.62988c-0.30615-0.33789-0.75977-0.50684-1.36084-0.50684
			c-0.40137,0-0.76514,0.11621-1.0918,0.34863c-0.32715,0.23242-0.5835,0.54297-0.76758,0.93359
			c-0.18506,0.39063-0.27686,0.8125-0.27686,1.26563v4.55762h-1.34521v-4.95313c0-0.75977-0.15332-1.30762-0.45898-1.64551
			c-0.30615-0.33789-0.75439-0.50684-1.34521-0.50684c-0.40088,0-0.76465,0.11914-1.0918,0.35645s-0.58301,0.55371-0.76758,0.94922
			s-0.27686,0.82031-0.27686,1.27441v4.52539h-1.34473V133.94824z"/>
		<path class="st1" d="M35.55078,141.70215c-0.63281-0.37988-1.12598-0.89648-1.47949-1.55078s-0.52979-1.37695-0.52979-2.16797
			s0.17627-1.51367,0.52979-2.16797s0.84668-1.1709,1.47949-1.55078c0.6333-0.37988,1.34521-0.56934,2.13672-0.56934
			c0.79102,0,1.50293,0.18945,2.13623,0.56934c0.63281,0.37988,1.12598,0.89648,1.47949,1.55078
			c0.35303,0.6543,0.52979,1.37695,0.52979,2.16797s-0.17676,1.51367-0.52979,2.16797
			c-0.35352,0.6543-0.84668,1.1709-1.47949,1.55078c-0.6333,0.37988-1.34521,0.56934-2.13623,0.56934
			C36.896,142.27148,36.18408,142.08203,35.55078,141.70215z M39.07178,140.68164c0.42725-0.24805,0.77002-0.60449,1.02881-1.06836
			c0.2583-0.46387,0.3877-1.00684,0.3877-1.62988c0-0.62207-0.12939-1.16602-0.3877-1.62988
			c-0.25879-0.46387-0.60156-0.82031-1.02881-1.06836c-0.42725-0.24707-0.88867-0.37207-1.38428-0.37207
			c-0.49609,0-0.96045,0.125-1.39258,0.37207c-0.43311,0.24805-0.77832,0.60449-1.03662,1.06836
			c-0.25879,0.46387-0.3877,1.00781-0.3877,1.62988c0,0.62305,0.12891,1.16602,0.3877,1.62988
			c0.2583,0.46387,0.60352,0.82031,1.03662,1.06836c0.43213,0.24805,0.89648,0.37207,1.39258,0.37207
			C38.18311,141.05371,38.64453,140.92969,39.07178,140.68164z"/>
		<path class="st1" d="M43.50732,133.94824h1.28125v1.18652h0.06299c0.22168-0.40039,0.5752-0.74121,1.06055-1.02051
			c0.48486-0.2793,1.00195-0.41895,1.55078-0.41895c0.97021,0,1.71143,0.28223,2.22314,0.84668s0.76758,1.33203,0.76758,2.30176
			v5.1748H49.1084v-4.96875c0-0.74902-0.17969-1.29199-0.53809-1.62988c-0.35889-0.33789-0.84912-0.50684-1.47168-0.50684
			c-0.43262,0-0.82031,0.12207-1.16309,0.36426c-0.34277,0.24316-0.60889,0.56152-0.79883,0.95703
			c-0.18994,0.39648-0.28516,0.81055-0.28516,1.24219v4.54199h-1.34424V133.94824z"/>
		<path class="st1" d="M54.02979,141.71777c-0.61182-0.36914-1.08936-0.87793-1.43213-1.52734
			c-0.34277-0.64844-0.51416-1.37891-0.51416-2.19141c0-0.78027,0.16064-1.49805,0.48242-2.15234
			c0.32178-0.65332,0.77783-1.17578,1.36865-1.56641c0.59082-0.38965,1.27637-0.58496,2.05713-0.58496
			c0.7915,0,1.47705,0.17676,2.05713,0.53027s1.02588,0.84082,1.3374,1.46289c0.31104,0.62305,0.4668,1.33496,0.4668,2.13672
			c0,0.1582-0.01563,0.2959-0.04736,0.41113h-6.37744c0.03174,0.6123,0.1792,1.12891,0.44336,1.55078
			c0.26367,0.42188,0.59863,0.73926,1.00488,0.94922c0.40576,0.21191,0.83057,0.31738,1.27393,0.31738
			c1.03369,0,1.83008-0.48535,2.38916-1.45605l1.13916,0.55371c-0.34814,0.6543-0.82031,1.1709-1.41602,1.55078
			c-0.59619,0.37988-1.31592,0.56934-2.16016,0.56934C55.33252,142.27148,54.6416,142.08691,54.02979,141.71777z M58.42871,137.12891
			c-0.021-0.33789-0.11621-0.6748-0.28467-1.0127c-0.16895-0.33789-0.43506-0.62207-0.79932-0.85449
			c-0.36377-0.23242-0.82031-0.34863-1.36865-0.34863c-0.63281,0-1.16846,0.2041-1.60596,0.60938
			c-0.43799,0.40625-0.72559,0.94141-0.86279,1.60645H58.42871z"/>
		<path class="st1" d="M63.67578,141.51172l-3.33887-7.56348h1.45605l2.53174,5.99707h0.03174l2.43701-5.99707h1.45557
			l-4.98438,11.48828h-1.39258L63.67578,141.51172z"/>
		<path class="st1" d="M71.08154,133.94824h1.37646l1.93066,6.37695h0.01611l2.0249-6.37695h1.39258l2.04102,6.36133h0.01611
			l1.91455-6.36133h1.36084l-2.61084,8.07031h-1.36084l-2.08887-6.44043l-2.07324,6.44043h-1.34424L71.08154,133.94824z"/>
		<path class="st1" d="M84.43994,132.19141c-0.18994-0.18945-0.28516-0.41602-0.28516-0.67969s0.09521-0.48828,0.28516-0.67285
			c0.18945-0.18457,0.4165-0.27734,0.68018-0.27734s0.49072,0.09277,0.68066,0.27734s0.28467,0.40918,0.28467,0.67285
			s-0.09229,0.49023-0.27686,0.67969c-0.18457,0.19043-0.41406,0.28516-0.68848,0.28516
			C84.85645,132.47656,84.62939,132.38184,84.43994,132.19141z M84.45557,133.94824h1.3291v8.07031h-1.3291V133.94824z"/>
		<path class="st1" d="M89.9873,142.11035c-0.27979-0.10645-0.51416-0.25195-0.7041-0.43457
			c-0.21094-0.2041-0.36914-0.44043-0.47461-0.70898s-0.1582-0.5957-0.1582-0.98242v-4.81738H87.2417v-1.21875h1.40869v-2.27832
			h1.34473v2.27832h1.9624v1.21875h-1.9624v4.49609c0,0.45313,0.08447,0.78711,0.25342,1.00293
			c0.2002,0.2373,0.49072,0.35547,0.87012,0.35547c0.30615,0,0.60156-0.08984,0.88623-0.26855v1.31348
			c-0.1582,0.07324-0.31934,0.12598-0.48242,0.1582c-0.16357,0.03125-0.37207,0.04688-0.625,0.04688
			C90.57031,142.27148,90.2666,142.21777,89.9873,142.11035z"/>
		<path class="st1" d="M93.47852,130.68848h1.34473v3.33887l-0.06299,1.10742h0.06299
			c0.22168-0.41113,0.57227-0.75391,1.05225-1.02832s1.00488-0.41113,1.57471-0.41113c0.98096,0,1.72998,0.28711,2.24707,0.8623
			c0.5166,0.5752,0.77539,1.33691,0.77539,2.28613v5.1748h-1.34521v-4.96875c0-0.72754-0.18457-1.26563-0.55371-1.61426
			c-0.36914-0.34766-0.84912-0.52246-1.43994-0.52246c-0.42188,0-0.80957,0.12695-1.16309,0.37988
			c-0.35352,0.25391-0.63281,0.58105-0.83887,0.98145c-0.20557,0.40137-0.30859,0.81738-0.30859,1.25v4.49414h-1.34473V130.68848z"/>
		<path class="st1" d="M106.5166,141.71777c-0.61182-0.36914-1.08936-0.87793-1.43164-1.52734
			c-0.34277-0.64844-0.51416-1.37891-0.51416-2.19141c0-0.78027,0.16064-1.49805,0.48242-2.15234
			c0.32129-0.65332,0.77734-1.17578,1.36816-1.56641c0.59082-0.38965,1.27637-0.58496,2.05713-0.58496
			c0.7915,0,1.47705,0.17676,2.05713,0.53027s1.02588,0.84082,1.3374,1.46289c0.31104,0.62305,0.4668,1.33496,0.4668,2.13672
			c0,0.1582-0.01563,0.2959-0.04736,0.41113h-6.37744c0.03174,0.6123,0.1792,1.12891,0.44336,1.55078
			c0.26367,0.42188,0.59863,0.73926,1.00488,0.94922c0.40576,0.21191,0.83057,0.31738,1.27393,0.31738
			c1.03369,0,1.83008-0.48535,2.38916-1.45605l1.13916,0.55371c-0.34814,0.6543-0.82031,1.1709-1.41602,1.55078
			c-0.59619,0.37988-1.31592,0.56934-2.16016,0.56934C107.81934,142.27148,107.12842,142.08691,106.5166,141.71777z
			 M110.91553,137.12891c-0.021-0.33789-0.11621-0.6748-0.28467-1.0127c-0.16895-0.33789-0.43506-0.62207-0.79932-0.85449
			c-0.36377-0.23242-0.82031-0.34863-1.36865-0.34863c-0.63281,0-1.16846,0.2041-1.60596,0.60938
			c-0.43799,0.40625-0.72559,0.94141-0.86279,1.60645H110.91553z"/>
		<path class="st1" d="M114.93799,141.92383c-0.46436-0.23242-0.82275-0.55176-1.07568-0.95801
			c-0.25342-0.40527-0.37988-0.86719-0.37988-1.38379c0-0.85449,0.32178-1.52246,0.96533-2.00195
			c0.64307-0.48047,1.45557-0.71973,2.43701-0.71973c0.48486,0,0.93604,0.05273,1.35254,0.1582
			c0.41699,0.10547,0.73584,0.22656,0.95752,0.36328v-0.49023c0-0.60156-0.21094-1.08398-0.63281-1.44824
			c-0.42236-0.36328-0.95508-0.5459-1.59814-0.5459c-0.4541,0-0.87061,0.09766-1.25049,0.29297
			c-0.37939,0.19531-0.68018,0.4668-0.90186,0.81543l-1.0127-0.75977c0.31641-0.48535,0.75146-0.86523,1.30566-1.13965
			c0.55371-0.27441,1.16797-0.41113,1.84326-0.41113c1.09717,0,1.95947,0.28711,2.5874,0.8623
			c0.62744,0.5752,0.94141,1.3584,0.94141,2.34961v5.11133h-1.28174v-1.15527h-0.06348
			c-0.23193,0.39063-0.58008,0.72266-1.04395,0.99707c-0.46436,0.27441-0.98682,0.41113-1.56689,0.41113
			C115.92969,142.27148,115.40234,142.15527,114.93799,141.92383z M117.91309,140.73633
			c0.39014-0.23145,0.70166-0.54297,0.93359-0.93359c0.23193-0.38965,0.34814-0.81738,0.34814-1.28125
			c-0.25293-0.16895-0.56445-0.30566-0.93359-0.41113s-0.75977-0.1582-1.1709-0.1582c-0.73877,0-1.29541,0.15234-1.66943,0.45898
			c-0.37451,0.30566-0.56201,0.70117-0.56201,1.18652c0,0.44336,0.16895,0.80176,0.50635,1.07617
			c0.33789,0.27441,0.76514,0.41113,1.28174,0.41113C117.10059,141.08496,117.52295,140.96875,117.91309,140.73633z"/>
		<path class="st1" d="M123.09668,141.66211c-0.58008-0.40527-0.9917-0.92578-1.23389-1.55859l1.20264-0.53809
			c0.2002,0.48535,0.49805,0.86035,0.89404,1.12402c0.39551,0.26367,0.83057,0.39551,1.30518,0.39551
			c0.50635,0,0.93896-0.10254,1.29785-0.30859c0.3584-0.20605,0.53809-0.49805,0.53809-0.87793
			c0-0.33789-0.14258-0.60938-0.42725-0.81543c-0.28516-0.20508-0.7334-0.38184-1.34521-0.53027l-0.98096-0.25293
			c-0.64355-0.1582-1.17139-0.42676-1.58252-0.80664c-0.41162-0.37988-0.61719-0.87109-0.61719-1.47168
			c0-0.46484,0.13965-0.87305,0.41943-1.22656c0.2793-0.35352,0.65137-0.625,1.11572-0.81543
			c0.46387-0.18945,0.96484-0.28418,1.50293-0.28418c0.70654,0,1.3374,0.15234,1.89111,0.45898
			c0.55371,0.30566,0.94678,0.7334,1.17871,1.28125l-1.1709,0.53809c-0.35889-0.7168-0.99658-1.07617-1.91455-1.07617
			c-0.44336,0-0.83105,0.10352-1.16309,0.30859c-0.33252,0.20605-0.49854,0.4668-0.49854,0.7832
			c0,0.2959,0.11621,0.53613,0.34814,0.7207s0.58008,0.33496,1.04443,0.4502l1.1709,0.30078
			c0.79102,0.20117,1.38721,0.49902,1.78809,0.89453s0.60156,0.87793,0.60156,1.44727c0,0.49609-0.14258,0.93164-0.42725,1.30566
			c-0.28516,0.375-0.67041,0.66211-1.15527,0.8623c-0.48535,0.2002-1.02344,0.30078-1.61426,0.30078
			C124.39941,142.27148,123.67676,142.06836,123.09668,141.66211z"/>
		<path class="st1" d="M131.53418,141.71777c-0.61182-0.36914-1.08936-0.87793-1.43213-1.52734
			c-0.34277-0.64844-0.51416-1.37891-0.51416-2.19141c0-0.78027,0.16064-1.49805,0.48242-2.15234
			c0.32178-0.65332,0.77783-1.17578,1.36865-1.56641c0.59082-0.38965,1.27637-0.58496,2.05713-0.58496
			c0.7915,0,1.47705,0.17676,2.05713,0.53027c0.57959,0.35352,1.02539,0.84082,1.33691,1.46289
			c0.31104,0.62305,0.4668,1.33496,0.4668,2.13672c0,0.1582-0.01563,0.2959-0.04736,0.41113h-6.37695
			c0.03174,0.6123,0.1792,1.12891,0.44336,1.55078c0.26367,0.42188,0.59863,0.73926,1.00488,0.94922
			c0.40576,0.21191,0.83057,0.31738,1.27393,0.31738c1.03369,0,1.83008-0.48535,2.38867-1.45605l1.13916,0.55371
			c-0.34814,0.6543-0.82031,1.1709-1.41553,1.55078c-0.59619,0.37988-1.31592,0.56934-2.16016,0.56934
			C132.83691,142.27148,132.146,142.08691,131.53418,141.71777z M135.93262,137.12891c-0.021-0.33789-0.11621-0.6748-0.28418-1.0127
			c-0.16895-0.33789-0.43506-0.62207-0.79932-0.85449c-0.36377-0.23242-0.82031-0.34863-1.36865-0.34863
			c-0.63281,0-1.16846,0.2041-1.60596,0.60938c-0.43799,0.40625-0.72559,0.94141-0.86279,1.60645H135.93262z"/>
		<path class="st1" d="M138.99609,141.73926c-0.19531-0.18555-0.29297-0.41406-0.29297-0.68555
			c0-0.26172,0.09766-0.48535,0.29297-0.6709s0.43506-0.2793,0.72021-0.2793c0.27393,0,0.50879,0.09375,0.7041,0.2793
			c0.19482,0.18555,0.29248,0.40918,0.29248,0.6709c0,0.27148-0.09766,0.5-0.29248,0.68555
			c-0.19531,0.18652-0.43018,0.2793-0.7041,0.2793C139.43115,142.01855,139.19141,141.92578,138.99609,141.73926z"/>
	</g>
</g>

<g id="logo">
 <g>
	 <path class="st3" d="M24.20895,35.30923c-0.00196-0.66413,0.10333-1.32423,0.31178-1.95481l-1.65943-1.49329L21.0911,30.694
		 c-1.45791,2.90412-1.45324,6.32274,0.00467,9.22686l1.82297-1.20866l1.60768-1.4435
		 C24.31818,36.63877,24.20722,35.97268,24.20895,35.30923z"/>
	 <path class="st4" d="M30.2785,33.35442v4.00192h5.51374c0,0.80818-0.78691,2.35592-2.03816,3.15179l1.37555,1.45114l1.957,1.1424
		 c1.94045-1.78866,3.05412-4.4223,3.05412-7.54835c0.02443-0.73256-0.02756-1.47794-0.15971-2.1989H30.2785z"/>
	 <path class="st5" d="M30.2785,41.48543c-2.66658,0-4.95006-1.78605-5.75208-4.21674l-3.43065,2.65216
		 c1.74401,3.46987,5.30744,5.66732,9.19093,5.66702c2.77119,0,5.09946-0.91702,6.79992-2.4862l-3.33254-2.59354
		 C32.90898,41.08247,31.77999,41.48543,30.2785,41.48543z"/>
	 <path class="st6" d="M30.2785,25.03674c-3.88304-0.0007-7.44282,2.18818-9.1874,5.65726l3.42963,2.66043
		 c0.82049-2.43069,3.07682-4.23371,5.75776-4.23371c1.52788,0,2.8053,0.51934,3.88458,1.5024l2.98904-2.91979
		 C35.2917,25.95944,32.82825,25.00376,30.2785,25.03674z"/>
 </g>
 <g>
	 <path class="st1" d="M46.94593,27.50914h5.55702c0.92242,0,1.77559,0.20745,2.55951,0.62264
		 c0.78421,0.41491,1.41022,0.9956,1.87946,1.74097c0.46867,0.74565,0.70314,1.58756,0.70314,2.52489
		 c0,0.9379-0.23447,1.77953-0.70314,2.52489c-0.46923,0.74593-1.09525,1.32606-1.87946,1.74097
		 c-0.78393,0.41518-1.6371,0.62263-2.55951,0.62263H48.8828v6.73333h-1.93688V27.50914z M52.54911,35.4185
		 c0.61476,0,1.15661-0.14609,1.62584-0.43827c0.46867-0.2919,0.83347-0.6688,1.09525-1.12987
		 c0.26122-0.46107,0.39182-0.9455,0.39182-1.45273c0-0.50723-0.13061-0.99138-0.39182-1.45273
		 c-0.26178-0.46107-0.62658-0.83769-1.09525-1.12987c-0.46923-0.2919-1.01108-0.43798-1.62584-0.43798h-3.6663v6.04145H52.54911z"
		 />
	 <path class="st1" d="M60.59639,43.88097c-0.67668-0.33778-1.19911-0.80307-1.56814-1.39502
		 c-0.36874-0.59167-0.55339-1.26414-0.55339-2.01766c0-1.24528,0.46895-2.21724,1.40656-2.917
		 c0.93762-0.6992,2.12153-1.04908,3.55118-1.04908c0.7068,0,1.36406,0.07713,1.9715,0.23053
		 c0.60715,0.15397,1.07244,0.33074,1.39502,0.53031v-0.71468c0-0.87626-0.30766-1.57968-0.92213-2.10999
		 c-0.61504-0.53031-1.39165-0.79547-2.32898-0.79547c-0.6612,0-1.26836,0.14215-1.82175,0.42645
		 c-0.55339,0.28458-0.99166,0.68034-1.31424,1.18757l-1.47581-1.10679c0.46107-0.7068,1.09525-1.26019,1.90225-1.66018
		 c0.80701-0.3997,1.7024-0.59956,2.68646-0.59956c1.59854,0,2.85535,0.41885,3.77017,1.25653
		 c0.91425,0.83825,1.37195,1.97966,1.37195,3.42451v7.44801h-1.86792V42.3362h-0.09204
		 c-0.33834,0.56887-0.84557,1.05302-1.52197,1.45273c-0.67668,0.39942-1.43753,0.59927-2.28282,0.59927
		 C62.04124,44.3882,61.27251,44.21903,60.59639,43.88097z M64.9315,42.15155c0.5686-0.33778,1.02206-0.79153,1.3604-1.3604
		 c0.33806-0.56859,0.50723-1.19123,0.50723-1.86791c-0.36874-0.24574-0.82249-0.44559-1.3604-0.59927
		 c-0.53819-0.15369-1.10679-0.23082-1.70634-0.23082c-1.07611,0-1.88734,0.22321-2.43285,0.6688
		 c-0.54579,0.44615-0.81855,1.02262-0.81855,1.72942c0,0.64572,0.24574,1.16843,0.73805,1.56814
		 c0.49175,0.3997,1.11439,0.59927,1.86763,0.59927C63.74758,42.65878,64.36262,42.48989,64.9315,42.15155z"/>
	 <path class="st1" d="M74.17789,43.28141l-4.86542-11.02199h2.12154l3.68938,8.73917h0.04617l3.55118-8.73917h2.12125L73.57862,49
		 h-2.02921L74.17789,43.28141z"/>
 </g>
</g>
</svg>
